<svg width="1600" height="959" viewBox="0 0 1600 959" fill="none" xmlns="http://www.w3.org/2000/svg">
<ellipse cx="30.1125" cy="0.560165" rx="0.528286" ry="0.560165" fill="white"/>
<ellipse cx="109.356" cy="0.560165" rx="0.528289" ry="0.560165" fill="white"/>
<ellipse cx="188.599" cy="0.560165" rx="0.528289" ry="0.560165" fill="white"/>
<ellipse cx="267.843" cy="0.560165" rx="0.528281" ry="0.560165" fill="white"/>
<ellipse cx="347.086" cy="0.560165" rx="0.528289" ry="0.560165" fill="white"/>
<ellipse cx="426.329" cy="0.560165" rx="0.528289" ry="0.560165" fill="white"/>
<ellipse cx="505.573" cy="0.560165" rx="0.52823" ry="0.560165" fill="white"/>
<ellipse cx="584.816" cy="0.560165" rx="0.528274" ry="0.560165" fill="white"/>
<ellipse cx="664.06" cy="0.560165" rx="0.528303" ry="0.560165" fill="white"/>
<ellipse cx="743.303" cy="0.560165" rx="0.528303" ry="0.560165" fill="white"/>
<ellipse cx="67.0927" cy="56.5764" rx="0.528289" ry="0.560165" fill="white"/>
<ellipse cx="146.336" cy="56.5764" rx="0.528299" ry="0.560165" fill="white"/>
<ellipse cx="225.58" cy="56.5764" rx="0.528289" ry="0.560165" fill="white"/>
<ellipse cx="304.823" cy="56.5764" rx="0.528274" ry="0.560165" fill="white"/>
<ellipse cx="384.066" cy="56.5764" rx="0.528303" ry="0.560165" fill="white"/>
<ellipse cx="463.31" cy="56.5764" rx="0.528289" ry="0.560165" fill="white"/>
<ellipse cx="542.553" cy="56.5764" rx="0.528303" ry="0.560165" fill="white"/>
<ellipse cx="621.796" cy="56.5764" rx="0.528274" ry="0.560165" fill="white"/>
<ellipse cx="701.04" cy="56.5764" rx="0.528303" ry="0.560165" fill="white"/>
<ellipse cx="780.283" cy="56.5764" rx="0.528303" ry="0.560165" fill="white"/>
<ellipse cx="51.244" cy="112.593" rx="0.528289" ry="0.560165" fill="white"/>
<ellipse cx="130.487" cy="112.593" rx="0.528289" ry="0.560165" fill="white"/>
<ellipse cx="209.731" cy="112.593" rx="0.528289" ry="0.560165" fill="white"/>
<ellipse cx="288.974" cy="112.593" rx="0.528303" ry="0.560165" fill="white"/>
<ellipse cx="368.218" cy="112.593" rx="0.528289" ry="0.560165" fill="white"/>
<ellipse cx="447.461" cy="112.593" rx="0.528289" ry="0.560165" fill="white"/>
<ellipse cx="526.704" cy="112.593" rx="0.528274" ry="0.560165" fill="white"/>
<ellipse cx="605.948" cy="112.593" rx="0.528303" ry="0.560165" fill="white"/>
<ellipse cx="685.191" cy="112.593" rx="0.528303" ry="0.560165" fill="white"/>
<ellipse cx="764.435" cy="112.593" rx="0.528274" ry="0.560165" fill="white"/>
<ellipse cx="67.0927" cy="168.609" rx="0.528289" ry="0.560165" fill="white"/>
<ellipse cx="146.336" cy="168.609" rx="0.528299" ry="0.560165" fill="white"/>
<ellipse cx="225.58" cy="168.609" rx="0.528289" ry="0.560165" fill="white"/>
<ellipse cx="304.823" cy="168.609" rx="0.528274" ry="0.560165" fill="white"/>
<ellipse cx="384.066" cy="168.609" rx="0.528303" ry="0.560165" fill="white"/>
<ellipse cx="463.31" cy="168.609" rx="0.528289" ry="0.560165" fill="white"/>
<ellipse cx="542.553" cy="168.609" rx="0.528303" ry="0.560165" fill="white"/>
<ellipse cx="621.796" cy="168.609" rx="0.528274" ry="0.560165" fill="white"/>
<ellipse cx="701.04" cy="168.609" rx="0.528303" ry="0.560165" fill="white"/>
<ellipse cx="780.283" cy="168.609" rx="0.528303" ry="0.560165" fill="white"/>
<ellipse cx="40.6782" cy="225.746" rx="0.528287" ry="0.560165" fill="white"/>
<ellipse cx="119.922" cy="225.746" rx="0.528289" ry="0.560165" fill="white"/>
<ellipse cx="199.165" cy="225.746" rx="0.528281" ry="0.560165" fill="white"/>
<ellipse cx="278.408" cy="225.746" rx="0.52831" ry="0.560165" fill="white"/>
<ellipse cx="357.652" cy="225.746" rx="0.528289" ry="0.560165" fill="white"/>
<ellipse cx="436.895" cy="225.746" rx="0.528289" ry="0.560165" fill="white"/>
<ellipse cx="516.139" cy="225.746" rx="0.528332" ry="0.560165" fill="white"/>
<ellipse cx="595.382" cy="225.746" rx="0.528274" ry="0.560165" fill="white"/>
<ellipse cx="674.625" cy="225.746" rx="0.528303" ry="0.560165" fill="white"/>
<ellipse cx="753.869" cy="225.746" rx="0.528274" ry="0.560165" fill="white"/>
<ellipse cx="72.3756" cy="281.762" rx="0.528287" ry="0.560165" fill="white"/>
<ellipse cx="151.619" cy="281.762" rx="0.528289" ry="0.560165" fill="white"/>
<ellipse cx="230.862" cy="281.762" rx="0.52831" ry="0.560165" fill="white"/>
<ellipse cx="310.106" cy="281.762" rx="0.528289" ry="0.560165" fill="white"/>
<ellipse cx="389.349" cy="281.762" rx="0.528289" ry="0.560165" fill="white"/>
<ellipse cx="468.593" cy="281.762" rx="0.528332" ry="0.560165" fill="white"/>
<ellipse cx="547.836" cy="281.762" rx="0.528216" ry="0.560165" fill="white"/>
<ellipse cx="627.079" cy="281.762" rx="0.528303" ry="0.560165" fill="white"/>
<ellipse cx="706.323" cy="281.762" rx="0.528274" ry="0.560165" fill="white"/>
<ellipse cx="61.8098" cy="337.778" rx="0.528287" ry="0.560165" fill="white"/>
<ellipse cx="141.053" cy="337.778" rx="0.528274" ry="0.560165" fill="white"/>
<ellipse cx="220.297" cy="337.778" rx="0.528289" ry="0.560165" fill="white"/>
<ellipse cx="299.54" cy="337.778" rx="0.528318" ry="0.560165" fill="white"/>
<ellipse cx="378.783" cy="337.778" rx="0.528289" ry="0.560165" fill="white"/>
<ellipse cx="458.027" cy="337.778" rx="0.52823" ry="0.560165" fill="white"/>
<ellipse cx="537.27" cy="337.778" rx="0.528332" ry="0.560165" fill="white"/>
<ellipse cx="616.514" cy="337.778" rx="0.528303" ry="0.560165" fill="white"/>
<ellipse cx="695.757" cy="337.778" rx="0.528303" ry="0.560165" fill="white"/>
<ellipse cx="775" cy="337.778" rx="0.528274" ry="0.560165" fill="white"/>
<ellipse cx="93.5072" cy="393.795" rx="0.528292" ry="0.56015" fill="white"/>
<ellipse cx="172.751" cy="393.795" rx="0.528289" ry="0.56015" fill="white"/>
<ellipse cx="251.994" cy="393.795" rx="0.52831" ry="0.56015" fill="white"/>
<ellipse cx="331.237" cy="393.795" rx="0.528289" ry="0.56015" fill="white"/>
<ellipse cx="410.481" cy="393.795" rx="0.528274" ry="0.56015" fill="white"/>
<ellipse cx="489.724" cy="393.795" rx="0.528332" ry="0.56015" fill="white"/>
<ellipse cx="568.968" cy="393.795" rx="0.528303" ry="0.56015" fill="white"/>
<ellipse cx="648.211" cy="393.795" rx="0.528303" ry="0.56015" fill="white"/>
<ellipse cx="727.454" cy="393.795" rx="0.528274" ry="0.56015" fill="white"/>
<ellipse cx="806.698" cy="393.795" rx="0.528477" ry="0.56015" fill="white"/>
<ellipse cx="51.244" cy="449.811" rx="0.528289" ry="0.56015" fill="white"/>
<ellipse cx="130.487" cy="449.811" rx="0.528289" ry="0.56015" fill="white"/>
<ellipse cx="209.731" cy="449.811" rx="0.528289" ry="0.56015" fill="white"/>
<ellipse cx="288.974" cy="449.811" rx="0.528303" ry="0.56015" fill="white"/>
<ellipse cx="368.218" cy="449.811" rx="0.528289" ry="0.56015" fill="white"/>
<ellipse cx="447.461" cy="449.811" rx="0.528289" ry="0.56015" fill="white"/>
<ellipse cx="526.704" cy="449.811" rx="0.528274" ry="0.56015" fill="white"/>
<ellipse cx="605.948" cy="449.811" rx="0.528303" ry="0.56015" fill="white"/>
<ellipse cx="685.191" cy="449.811" rx="0.528303" ry="0.56015" fill="white"/>
<ellipse cx="764.435" cy="449.811" rx="0.528274" ry="0.56015" fill="white"/>
<ellipse cx="67.0927" cy="505.827" rx="0.528289" ry="0.56015" fill="white"/>
<ellipse cx="146.336" cy="505.827" rx="0.528299" ry="0.56015" fill="white"/>
<ellipse cx="225.58" cy="505.827" rx="0.528289" ry="0.56015" fill="white"/>
<ellipse cx="304.823" cy="505.827" rx="0.528274" ry="0.56015" fill="white"/>
<ellipse cx="384.066" cy="505.827" rx="0.528303" ry="0.56015" fill="white"/>
<ellipse cx="463.31" cy="505.827" rx="0.528289" ry="0.56015" fill="white"/>
<ellipse cx="542.553" cy="505.827" rx="0.528303" ry="0.56015" fill="white"/>
<ellipse cx="621.796" cy="505.827" rx="0.528274" ry="0.56015" fill="white"/>
<ellipse cx="701.04" cy="505.827" rx="0.528303" ry="0.56015" fill="white"/>
<ellipse cx="780.283" cy="505.827" rx="0.528303" ry="0.56015" fill="white"/>
<ellipse cx="104.073" cy="567.445" rx="0.528285" ry="0.56015" fill="white"/>
<ellipse cx="183.316" cy="567.445" rx="0.528289" ry="0.56015" fill="white"/>
<ellipse cx="262.56" cy="567.445" rx="0.528281" ry="0.56015" fill="white"/>
<ellipse cx="341.803" cy="567.445" rx="0.528289" ry="0.56015" fill="white"/>
<ellipse cx="421.047" cy="567.445" rx="0.528332" ry="0.56015" fill="white"/>
<ellipse cx="500.29" cy="567.445" rx="0.52823" ry="0.56015" fill="white"/>
<ellipse cx="579.533" cy="567.445" rx="0.528303" ry="0.56015" fill="white"/>
<ellipse cx="658.777" cy="567.445" rx="0.528274" ry="0.56015" fill="white"/>
<ellipse cx="738.02" cy="567.445" rx="0.528274" ry="0.56015" fill="white"/>
<ellipse cx="817.264" cy="567.445" rx="0.528303" ry="0.56015" fill="white"/>
<ellipse cx="72.3756" cy="629.063" rx="0.528287" ry="0.560181" fill="white"/>
<ellipse cx="151.619" cy="629.063" rx="0.528289" ry="0.560181" fill="white"/>
<ellipse cx="230.862" cy="629.063" rx="0.52831" ry="0.560181" fill="white"/>
<ellipse cx="310.106" cy="629.063" rx="0.528289" ry="0.560181" fill="white"/>
<ellipse cx="389.349" cy="629.063" rx="0.528289" ry="0.560181" fill="white"/>
<ellipse cx="468.593" cy="629.063" rx="0.528332" ry="0.560181" fill="white"/>
<ellipse cx="547.836" cy="629.063" rx="0.528216" ry="0.560181" fill="white"/>
<ellipse cx="627.079" cy="629.063" rx="0.528303" ry="0.560181" fill="white"/>
<ellipse cx="706.323" cy="629.063" rx="0.528274" ry="0.560181" fill="white"/>
<ellipse cx="785.566" cy="629.063" rx="0.528274" ry="0.560181" fill="white"/>
<ellipse cx="114.639" cy="689.561" rx="0.528285" ry="0.560181" fill="white"/>
<ellipse cx="193.882" cy="689.561" rx="0.528281" ry="0.560181" fill="white"/>
<ellipse cx="273.125" cy="689.561" rx="0.52831" ry="0.560181" fill="white"/>
<ellipse cx="352.369" cy="689.561" rx="0.528274" ry="0.560181" fill="white"/>
<ellipse cx="431.612" cy="689.561" rx="0.528274" ry="0.560181" fill="white"/>
<ellipse cx="510.856" cy="689.561" rx="0.528289" ry="0.560181" fill="white"/>
<ellipse cx="590.099" cy="689.561" rx="0.528303" ry="0.560181" fill="white"/>
<ellipse cx="669.342" cy="689.561" rx="0.528274" ry="0.560181" fill="white"/>
<ellipse cx="748.586" cy="689.561" rx="0.528303" ry="0.560181" fill="white"/>
<ellipse cx="82.9414" cy="751.179" rx="0.528287" ry="0.560181" fill="white"/>
<ellipse cx="162.185" cy="751.179" rx="0.528289" ry="0.560181" fill="white"/>
<ellipse cx="241.428" cy="751.179" rx="0.528296" ry="0.560181" fill="white"/>
<ellipse cx="320.672" cy="751.179" rx="0.528289" ry="0.560181" fill="white"/>
<ellipse cx="399.915" cy="751.179" rx="0.528274" ry="0.560181" fill="white"/>
<ellipse cx="479.158" cy="751.179" rx="0.528274" ry="0.560181" fill="white"/>
<ellipse cx="558.402" cy="751.179" rx="0.528303" ry="0.560181" fill="white"/>
<ellipse cx="637.645" cy="751.179" rx="0.528303" ry="0.560181" fill="white"/>
<ellipse cx="716.888" cy="751.179" rx="0.528274" ry="0.560181" fill="white"/>
<ellipse cx="796.132" cy="751.179" rx="0.528303" ry="0.560181" fill="white"/>
<ellipse cx="51.244" cy="812.797" rx="0.528289" ry="0.56015" fill="white"/>
<ellipse cx="130.487" cy="812.797" rx="0.528289" ry="0.56015" fill="white"/>
<ellipse cx="209.731" cy="812.797" rx="0.528289" ry="0.56015" fill="white"/>
<ellipse cx="288.974" cy="812.797" rx="0.528303" ry="0.56015" fill="white"/>
<ellipse cx="368.218" cy="812.797" rx="0.528289" ry="0.56015" fill="white"/>
<ellipse cx="447.461" cy="812.797" rx="0.528289" ry="0.56015" fill="white"/>
<ellipse cx="526.704" cy="812.797" rx="0.528274" ry="0.56015" fill="white"/>
<ellipse cx="605.948" cy="812.797" rx="0.528303" ry="0.56015" fill="white"/>
<ellipse cx="685.191" cy="812.797" rx="0.528303" ry="0.56015" fill="white"/>
<ellipse cx="764.435" cy="812.797" rx="0.528274" ry="0.56015" fill="white"/>
<ellipse cx="82.9414" cy="874.415" rx="0.528287" ry="0.56015" fill="white"/>
<ellipse cx="162.185" cy="874.415" rx="0.528289" ry="0.56015" fill="white"/>
<ellipse cx="241.428" cy="874.415" rx="0.528296" ry="0.56015" fill="white"/>
<ellipse cx="320.672" cy="874.415" rx="0.528289" ry="0.56015" fill="white"/>
<ellipse cx="399.915" cy="874.415" rx="0.528274" ry="0.56015" fill="white"/>
<ellipse cx="479.158" cy="874.415" rx="0.528274" ry="0.56015" fill="white"/>
<ellipse cx="558.402" cy="874.415" rx="0.528303" ry="0.56015" fill="white"/>
<ellipse cx="637.645" cy="874.415" rx="0.528303" ry="0.56015" fill="white"/>
<ellipse cx="716.888" cy="874.415" rx="0.528274" ry="0.56015" fill="white"/>
<ellipse cx="61.8098" cy="930.431" rx="0.528287" ry="0.56015" fill="white"/>
<ellipse cx="141.053" cy="930.431" rx="0.528274" ry="0.56015" fill="white"/>
<ellipse cx="220.297" cy="930.431" rx="0.528289" ry="0.56015" fill="white"/>
<ellipse cx="299.54" cy="930.431" rx="0.528318" ry="0.56015" fill="white"/>
<ellipse cx="378.783" cy="930.431" rx="0.528289" ry="0.56015" fill="white"/>
<ellipse cx="458.027" cy="930.431" rx="0.52823" ry="0.56015" fill="white"/>
<ellipse cx="537.27" cy="930.431" rx="0.528332" ry="0.56015" fill="white"/>
<ellipse cx="616.514" cy="930.431" rx="0.528303" ry="0.56015" fill="white"/>
<ellipse cx="695.757" cy="930.431" rx="0.528303" ry="0.56015" fill="white"/>
<ellipse cx="695.757" cy="930.431" rx="0.528303" ry="0.56015" fill="white"/>
<ellipse cx="796.132" cy="874.415" rx="0.528303" ry="0.56015" fill="white"/>
<ellipse cx="56.527" cy="6.16173" rx="0.528288" ry="0.560165" fill="white"/>
<ellipse cx="135.77" cy="6.16173" rx="0.528289" ry="0.560165" fill="white"/>
<ellipse cx="215.014" cy="6.16173" rx="0.528281" ry="0.560165" fill="white"/>
<ellipse cx="294.257" cy="6.16173" rx="0.528259" ry="0.560165" fill="white"/>
<ellipse cx="373.501" cy="6.16173" rx="0.528289" ry="0.560165" fill="white"/>
<ellipse cx="452.744" cy="6.16173" rx="0.52823" ry="0.560165" fill="white"/>
<ellipse cx="531.987" cy="6.16173" rx="0.528303" ry="0.560165" fill="white"/>
<ellipse cx="611.231" cy="6.16173" rx="0.528274" ry="0.560165" fill="white"/>
<ellipse cx="690.474" cy="6.16173" rx="0.528274" ry="0.560165" fill="white"/>
<ellipse cx="769.718" cy="6.16173" rx="0.528303" ry="0.560165" fill="white"/>
<ellipse cx="93.5072" cy="62.1781" rx="0.528292" ry="0.560165" fill="white"/>
<ellipse cx="172.751" cy="62.1781" rx="0.528289" ry="0.560165" fill="white"/>
<ellipse cx="251.994" cy="62.1781" rx="0.52831" ry="0.560165" fill="white"/>
<ellipse cx="331.237" cy="62.1781" rx="0.528289" ry="0.560165" fill="white"/>
<ellipse cx="410.481" cy="62.1781" rx="0.528274" ry="0.560165" fill="white"/>
<ellipse cx="489.724" cy="62.1781" rx="0.528332" ry="0.560165" fill="white"/>
<ellipse cx="568.968" cy="62.1781" rx="0.528303" ry="0.560165" fill="white"/>
<ellipse cx="648.211" cy="62.1781" rx="0.528303" ry="0.560165" fill="white"/>
<ellipse cx="727.454" cy="62.1781" rx="0.528274" ry="0.560165" fill="white"/>
<ellipse cx="806.698" cy="62.1781" rx="0.528477" ry="0.560165" fill="white"/>
<ellipse cx="77.6585" cy="118.194" rx="0.528289" ry="0.560165" fill="white"/>
<ellipse cx="156.902" cy="118.194" rx="0.528289" ry="0.560165" fill="white"/>
<ellipse cx="236.145" cy="118.194" rx="0.528267" ry="0.560165" fill="white"/>
<ellipse cx="315.388" cy="118.194" rx="0.528274" ry="0.560165" fill="white"/>
<ellipse cx="394.632" cy="118.194" rx="0.528289" ry="0.560165" fill="white"/>
<ellipse cx="473.875" cy="118.194" rx="0.528289" ry="0.560165" fill="white"/>
<ellipse cx="553.119" cy="118.194" rx="0.528245" ry="0.560165" fill="white"/>
<ellipse cx="632.362" cy="118.194" rx="0.528274" ry="0.560165" fill="white"/>
<ellipse cx="711.606" cy="118.194" rx="0.528303" ry="0.560165" fill="white"/>
<ellipse cx="790.849" cy="118.194" rx="0.528303" ry="0.560165" fill="white"/>
<ellipse cx="93.5072" cy="174.211" rx="0.528292" ry="0.560165" fill="white"/>
<ellipse cx="172.751" cy="174.211" rx="0.528289" ry="0.560165" fill="white"/>
<ellipse cx="251.994" cy="174.211" rx="0.52831" ry="0.560165" fill="white"/>
<ellipse cx="331.237" cy="174.211" rx="0.528289" ry="0.560165" fill="white"/>
<ellipse cx="410.481" cy="174.211" rx="0.528274" ry="0.560165" fill="white"/>
<ellipse cx="489.724" cy="174.211" rx="0.528332" ry="0.560165" fill="white"/>
<ellipse cx="568.968" cy="174.211" rx="0.528303" ry="0.560165" fill="white"/>
<ellipse cx="648.211" cy="174.211" rx="0.528303" ry="0.560165" fill="white"/>
<ellipse cx="727.454" cy="174.211" rx="0.528274" ry="0.560165" fill="white"/>
<ellipse cx="806.698" cy="174.211" rx="0.528477" ry="0.560165" fill="white"/>
<ellipse cx="67.0927" cy="231.347" rx="0.528289" ry="0.560165" fill="white"/>
<ellipse cx="146.336" cy="231.347" rx="0.528299" ry="0.560165" fill="white"/>
<ellipse cx="225.58" cy="231.347" rx="0.528289" ry="0.560165" fill="white"/>
<ellipse cx="304.823" cy="231.347" rx="0.528274" ry="0.560165" fill="white"/>
<ellipse cx="384.066" cy="231.347" rx="0.528303" ry="0.560165" fill="white"/>
<ellipse cx="463.31" cy="231.347" rx="0.528289" ry="0.560165" fill="white"/>
<ellipse cx="542.553" cy="231.347" rx="0.528303" ry="0.560165" fill="white"/>
<ellipse cx="621.796" cy="231.347" rx="0.528274" ry="0.560165" fill="white"/>
<ellipse cx="701.04" cy="231.347" rx="0.528303" ry="0.560165" fill="white"/>
<ellipse cx="780.283" cy="231.347" rx="0.528303" ry="0.560165" fill="white"/>
<ellipse cx="98.7901" cy="287.364" rx="0.528289" ry="0.560165" fill="white"/>
<ellipse cx="178.034" cy="287.364" rx="0.528289" ry="0.560165" fill="white"/>
<ellipse cx="257.277" cy="287.364" rx="0.528281" ry="0.560165" fill="white"/>
<ellipse cx="336.52" cy="287.364" rx="0.528303" ry="0.560165" fill="white"/>
<ellipse cx="415.764" cy="287.364" rx="0.528289" ry="0.560165" fill="white"/>
<ellipse cx="495.007" cy="287.364" rx="0.528289" ry="0.560165" fill="white"/>
<ellipse cx="574.25" cy="287.364" rx="0.528274" ry="0.560165" fill="white"/>
<ellipse cx="653.494" cy="287.364" rx="0.528303" ry="0.560165" fill="white"/>
<ellipse cx="732.737" cy="287.364" rx="0.528303" ry="0.560165" fill="white"/>
<ellipse cx="88.2243" cy="343.38" rx="0.528281" ry="0.560165" fill="white"/>
<ellipse cx="167.468" cy="343.38" rx="0.528296" ry="0.560165" fill="white"/>
<ellipse cx="246.711" cy="343.38" rx="0.528259" ry="0.560165" fill="white"/>
<ellipse cx="325.954" cy="343.38" rx="0.528289" ry="0.560165" fill="white"/>
<ellipse cx="405.198" cy="343.38" rx="0.528289" ry="0.560165" fill="white"/>
<ellipse cx="484.441" cy="343.38" rx="0.528289" ry="0.560165" fill="white"/>
<ellipse cx="563.685" cy="343.38" rx="0.528332" ry="0.560165" fill="white"/>
<ellipse cx="642.928" cy="343.38" rx="0.528274" ry="0.560165" fill="white"/>
<ellipse cx="722.171" cy="343.38" rx="0.528303" ry="0.560165" fill="white"/>
<ellipse cx="801.415" cy="343.38" rx="0.528187" ry="0.560165" fill="white"/>
<ellipse cx="119.922" cy="399.396" rx="0.528289" ry="0.56015" fill="white"/>
<ellipse cx="199.165" cy="399.396" rx="0.528281" ry="0.56015" fill="white"/>
<ellipse cx="278.408" cy="399.396" rx="0.52831" ry="0.56015" fill="white"/>
<ellipse cx="357.652" cy="399.396" rx="0.528289" ry="0.56015" fill="white"/>
<ellipse cx="436.895" cy="399.396" rx="0.528289" ry="0.56015" fill="white"/>
<ellipse cx="516.139" cy="399.396" rx="0.528332" ry="0.56015" fill="white"/>
<ellipse cx="595.382" cy="399.396" rx="0.528274" ry="0.56015" fill="white"/>
<ellipse cx="674.625" cy="399.396" rx="0.528303" ry="0.56015" fill="white"/>
<ellipse cx="753.869" cy="399.396" rx="0.528274" ry="0.56015" fill="white"/>
<ellipse cx="833.112" cy="398.276" rx="0.528158" ry="0.56015" fill="white"/>
<ellipse cx="77.6585" cy="455.413" rx="0.528289" ry="0.560181" fill="white"/>
<ellipse cx="156.902" cy="455.413" rx="0.528289" ry="0.560181" fill="white"/>
<ellipse cx="236.145" cy="455.413" rx="0.528267" ry="0.560181" fill="white"/>
<ellipse cx="315.388" cy="455.413" rx="0.528274" ry="0.560181" fill="white"/>
<ellipse cx="394.632" cy="455.413" rx="0.528289" ry="0.560181" fill="white"/>
<ellipse cx="473.875" cy="455.413" rx="0.528289" ry="0.560181" fill="white"/>
<ellipse cx="553.119" cy="455.413" rx="0.528245" ry="0.560181" fill="white"/>
<ellipse cx="632.362" cy="455.413" rx="0.528274" ry="0.560181" fill="white"/>
<ellipse cx="711.606" cy="455.413" rx="0.528303" ry="0.560181" fill="white"/>
<ellipse cx="790.849" cy="455.413" rx="0.528303" ry="0.560181" fill="white"/>
<ellipse cx="93.5072" cy="511.429" rx="0.528292" ry="0.560181" fill="white"/>
<ellipse cx="172.751" cy="511.429" rx="0.528289" ry="0.560181" fill="white"/>
<ellipse cx="251.994" cy="511.429" rx="0.52831" ry="0.560181" fill="white"/>
<ellipse cx="331.237" cy="511.429" rx="0.528289" ry="0.560181" fill="white"/>
<ellipse cx="410.481" cy="511.429" rx="0.528274" ry="0.560181" fill="white"/>
<ellipse cx="489.724" cy="511.429" rx="0.528332" ry="0.560181" fill="white"/>
<ellipse cx="568.968" cy="511.429" rx="0.528303" ry="0.560181" fill="white"/>
<ellipse cx="648.211" cy="511.429" rx="0.528303" ry="0.560181" fill="white"/>
<ellipse cx="727.454" cy="511.429" rx="0.528274" ry="0.560181" fill="white"/>
<ellipse cx="806.698" cy="511.429" rx="0.528477" ry="0.560181" fill="white"/>
<ellipse cx="130.487" cy="573.047" rx="0.528289" ry="0.56015" fill="white"/>
<ellipse cx="209.731" cy="573.047" rx="0.528289" ry="0.56015" fill="white"/>
<ellipse cx="288.974" cy="573.047" rx="0.528303" ry="0.56015" fill="white"/>
<ellipse cx="368.218" cy="573.047" rx="0.528289" ry="0.56015" fill="white"/>
<ellipse cx="447.461" cy="573.047" rx="0.528289" ry="0.56015" fill="white"/>
<ellipse cx="526.704" cy="573.047" rx="0.528274" ry="0.56015" fill="white"/>
<ellipse cx="605.948" cy="573.047" rx="0.528303" ry="0.56015" fill="white"/>
<ellipse cx="685.191" cy="573.047" rx="0.528303" ry="0.56015" fill="white"/>
<ellipse cx="764.435" cy="573.047" rx="0.528274" ry="0.56015" fill="white"/>
<ellipse cx="843.678" cy="571.927" rx="0.528303" ry="0.560181" fill="white"/>
<ellipse cx="98.7901" cy="634.665" rx="0.528289" ry="0.56015" fill="white"/>
<ellipse cx="178.034" cy="634.665" rx="0.528289" ry="0.56015" fill="white"/>
<ellipse cx="257.277" cy="634.665" rx="0.528281" ry="0.56015" fill="white"/>
<ellipse cx="336.52" cy="634.665" rx="0.528303" ry="0.56015" fill="white"/>
<ellipse cx="415.764" cy="634.665" rx="0.528289" ry="0.56015" fill="white"/>
<ellipse cx="495.007" cy="634.665" rx="0.528289" ry="0.56015" fill="white"/>
<ellipse cx="574.25" cy="634.665" rx="0.528274" ry="0.56015" fill="white"/>
<ellipse cx="653.494" cy="634.665" rx="0.528303" ry="0.56015" fill="white"/>
<ellipse cx="732.737" cy="634.665" rx="0.528303" ry="0.56015" fill="white"/>
<ellipse cx="811.98" cy="634.665" rx="0.528303" ry="0.56015" fill="white"/>
<ellipse cx="141.053" cy="695.163" rx="0.528274" ry="0.56015" fill="white"/>
<ellipse cx="220.297" cy="695.163" rx="0.528289" ry="0.56015" fill="white"/>
<ellipse cx="299.54" cy="695.163" rx="0.528318" ry="0.56015" fill="white"/>
<ellipse cx="378.783" cy="695.163" rx="0.528289" ry="0.56015" fill="white"/>
<ellipse cx="458.027" cy="695.163" rx="0.52823" ry="0.56015" fill="white"/>
<ellipse cx="537.27" cy="695.163" rx="0.528332" ry="0.56015" fill="white"/>
<ellipse cx="616.514" cy="695.163" rx="0.528303" ry="0.56015" fill="white"/>
<ellipse cx="695.757" cy="695.163" rx="0.528303" ry="0.56015" fill="white"/>
<ellipse cx="775" cy="695.163" rx="0.528274" ry="0.56015" fill="white"/>
<ellipse cx="109.356" cy="756.781" rx="0.528289" ry="0.560181" fill="white"/>
<ellipse cx="188.599" cy="756.781" rx="0.528289" ry="0.560181" fill="white"/>
<ellipse cx="267.843" cy="756.781" rx="0.528281" ry="0.560181" fill="white"/>
<ellipse cx="347.086" cy="756.781" rx="0.528289" ry="0.560181" fill="white"/>
<ellipse cx="426.329" cy="756.781" rx="0.528289" ry="0.560181" fill="white"/>
<ellipse cx="505.573" cy="756.781" rx="0.52823" ry="0.560181" fill="white"/>
<ellipse cx="584.816" cy="756.781" rx="0.528274" ry="0.560181" fill="white"/>
<ellipse cx="664.06" cy="756.781" rx="0.528303" ry="0.560181" fill="white"/>
<ellipse cx="743.303" cy="756.781" rx="0.528303" ry="0.560181" fill="white"/>
<ellipse cx="822.546" cy="756.781" rx="0.528303" ry="0.560181" fill="white"/>
<ellipse cx="77.6585" cy="818.399" rx="0.528289" ry="0.560181" fill="white"/>
<ellipse cx="156.902" cy="818.399" rx="0.528289" ry="0.560181" fill="white"/>
<ellipse cx="236.145" cy="818.399" rx="0.528267" ry="0.560181" fill="white"/>
<ellipse cx="315.388" cy="818.399" rx="0.528274" ry="0.560181" fill="white"/>
<ellipse cx="394.632" cy="818.399" rx="0.528289" ry="0.560181" fill="white"/>
<ellipse cx="473.875" cy="818.399" rx="0.528289" ry="0.560181" fill="white"/>
<ellipse cx="553.119" cy="818.399" rx="0.528245" ry="0.560181" fill="white"/>
<ellipse cx="632.362" cy="818.399" rx="0.528274" ry="0.560181" fill="white"/>
<ellipse cx="711.606" cy="818.399" rx="0.528303" ry="0.560181" fill="white"/>
<ellipse cx="790.849" cy="818.399" rx="0.528303" ry="0.560181" fill="white"/>
<ellipse cx="109.356" cy="880.017" rx="0.528289" ry="0.56015" fill="white"/>
<ellipse cx="188.599" cy="880.017" rx="0.528289" ry="0.56015" fill="white"/>
<ellipse cx="267.843" cy="880.017" rx="0.528281" ry="0.56015" fill="white"/>
<ellipse cx="347.086" cy="880.017" rx="0.528289" ry="0.56015" fill="white"/>
<ellipse cx="426.329" cy="880.017" rx="0.528289" ry="0.56015" fill="white"/>
<ellipse cx="505.573" cy="880.017" rx="0.52823" ry="0.56015" fill="white"/>
<ellipse cx="584.816" cy="880.017" rx="0.528274" ry="0.56015" fill="white"/>
<ellipse cx="664.06" cy="880.017" rx="0.528303" ry="0.56015" fill="white"/>
<ellipse cx="743.303" cy="880.017" rx="0.528303" ry="0.56015" fill="white"/>
<ellipse cx="88.2243" cy="936.033" rx="0.528281" ry="0.56015" fill="white"/>
<ellipse cx="167.468" cy="936.033" rx="0.528296" ry="0.56015" fill="white"/>
<ellipse cx="246.711" cy="936.033" rx="0.528259" ry="0.56015" fill="white"/>
<ellipse cx="325.954" cy="936.033" rx="0.528289" ry="0.56015" fill="white"/>
<ellipse cx="405.198" cy="936.033" rx="0.528289" ry="0.56015" fill="white"/>
<ellipse cx="484.441" cy="936.033" rx="0.528289" ry="0.56015" fill="white"/>
<ellipse cx="563.685" cy="936.033" rx="0.528332" ry="0.56015" fill="white"/>
<ellipse cx="642.928" cy="936.033" rx="0.528274" ry="0.56015" fill="white"/>
<ellipse cx="722.171" cy="936.033" rx="0.528303" ry="0.56015" fill="white"/>
<ellipse cx="722.171" cy="936.033" rx="0.528303" ry="0.56015" fill="white"/>
<ellipse cx="822.546" cy="880.017" rx="0.528303" ry="0.56015" fill="white"/>
<ellipse cx="0.528287" cy="28.5684" rx="0.528287" ry="0.560165" fill="white"/>
<ellipse cx="79.7716" cy="28.5684" rx="0.528287" ry="0.560165" fill="white"/>
<ellipse cx="159.015" cy="28.5684" rx="0.528303" ry="0.560165" fill="white"/>
<ellipse cx="238.258" cy="28.5684" rx="0.528267" ry="0.560165" fill="white"/>
<ellipse cx="317.502" cy="28.5684" rx="0.528289" ry="0.560165" fill="white"/>
<ellipse cx="396.745" cy="28.5684" rx="0.528289" ry="0.560165" fill="white"/>
<ellipse cx="475.989" cy="28.5684" rx="0.528332" ry="0.560165" fill="white"/>
<ellipse cx="555.232" cy="28.5684" rx="0.528303" ry="0.560165" fill="white"/>
<ellipse cx="634.475" cy="28.5684" rx="0.528274" ry="0.560165" fill="white"/>
<ellipse cx="713.719" cy="28.5684" rx="0.528274" ry="0.560165" fill="white"/>
<ellipse cx="37.5086" cy="84.5846" rx="0.528287" ry="0.560165" fill="white"/>
<ellipse cx="116.752" cy="84.5846" rx="0.528289" ry="0.560165" fill="white"/>
<ellipse cx="195.995" cy="84.5846" rx="0.528289" ry="0.560165" fill="white"/>
<ellipse cx="275.239" cy="84.5846" rx="0.528267" ry="0.560165" fill="white"/>
<ellipse cx="354.482" cy="84.5846" rx="0.528274" ry="0.560165" fill="white"/>
<ellipse cx="433.725" cy="84.5846" rx="0.528303" ry="0.560165" fill="white"/>
<ellipse cx="512.969" cy="84.5846" rx="0.528332" ry="0.560165" fill="white"/>
<ellipse cx="592.212" cy="84.5846" rx="0.528274" ry="0.560165" fill="white"/>
<ellipse cx="671.456" cy="84.5846" rx="0.528303" ry="0.560165" fill="white"/>
<ellipse cx="750.699" cy="84.5846" rx="0.528274" ry="0.560165" fill="white"/>
<ellipse cx="21.6599" cy="140.601" rx="0.528287" ry="0.560165" fill="white"/>
<ellipse cx="100.903" cy="140.601" rx="0.528289" ry="0.560165" fill="white"/>
<ellipse cx="180.147" cy="140.601" rx="0.528289" ry="0.560165" fill="white"/>
<ellipse cx="259.39" cy="140.601" rx="0.528281" ry="0.560165" fill="white"/>
<ellipse cx="338.633" cy="140.601" rx="0.528289" ry="0.560165" fill="white"/>
<ellipse cx="417.877" cy="140.601" rx="0.528332" ry="0.560165" fill="white"/>
<ellipse cx="497.12" cy="140.601" rx="0.528289" ry="0.560165" fill="white"/>
<ellipse cx="576.364" cy="140.601" rx="0.528303" ry="0.560165" fill="white"/>
<ellipse cx="655.607" cy="140.601" rx="0.528274" ry="0.560165" fill="white"/>
<ellipse cx="734.85" cy="140.601" rx="0.528274" ry="0.560165" fill="white"/>
<ellipse cx="37.5086" cy="196.617" rx="0.528287" ry="0.560165" fill="white"/>
<ellipse cx="116.752" cy="196.617" rx="0.528289" ry="0.560165" fill="white"/>
<ellipse cx="195.995" cy="196.617" rx="0.528289" ry="0.560165" fill="white"/>
<ellipse cx="275.239" cy="196.617" rx="0.528267" ry="0.560165" fill="white"/>
<ellipse cx="354.482" cy="196.617" rx="0.528274" ry="0.560165" fill="white"/>
<ellipse cx="433.725" cy="196.617" rx="0.528303" ry="0.560165" fill="white"/>
<ellipse cx="512.969" cy="196.617" rx="0.528332" ry="0.560165" fill="white"/>
<ellipse cx="592.212" cy="196.617" rx="0.528274" ry="0.560165" fill="white"/>
<ellipse cx="671.456" cy="196.617" rx="0.528303" ry="0.560165" fill="white"/>
<ellipse cx="750.699" cy="196.617" rx="0.528274" ry="0.560165" fill="white"/>
<ellipse cx="11.0941" cy="253.754" rx="0.528287" ry="0.560165" fill="white"/>
<ellipse cx="90.3374" cy="253.754" rx="0.528279" ry="0.560165" fill="white"/>
<ellipse cx="169.581" cy="253.754" rx="0.528289" ry="0.560165" fill="white"/>
<ellipse cx="248.824" cy="253.754" rx="0.528289" ry="0.560165" fill="white"/>
<ellipse cx="328.068" cy="253.754" rx="0.528289" ry="0.560165" fill="white"/>
<ellipse cx="407.311" cy="253.754" rx="0.528289" ry="0.560165" fill="white"/>
<ellipse cx="486.554" cy="253.754" rx="0.52823" ry="0.560165" fill="white"/>
<ellipse cx="565.798" cy="253.754" rx="0.528274" ry="0.560165" fill="white"/>
<ellipse cx="645.041" cy="253.754" rx="0.528274" ry="0.560165" fill="white"/>
<ellipse cx="724.284" cy="253.754" rx="0.528303" ry="0.560165" fill="white"/>
<ellipse cx="42.7913" cy="309.77" rx="0.528287" ry="0.560165" fill="white"/>
<ellipse cx="122.035" cy="309.77" rx="0.528289" ry="0.560165" fill="white"/>
<ellipse cx="201.278" cy="309.77" rx="0.528289" ry="0.560165" fill="white"/>
<ellipse cx="280.522" cy="309.77" rx="0.528289" ry="0.560165" fill="white"/>
<ellipse cx="359.765" cy="309.77" rx="0.528289" ry="0.560165" fill="white"/>
<ellipse cx="439.008" cy="309.77" rx="0.52823" ry="0.560165" fill="white"/>
<ellipse cx="518.252" cy="309.77" rx="0.528289" ry="0.560165" fill="white"/>
<ellipse cx="597.495" cy="309.77" rx="0.528274" ry="0.560165" fill="white"/>
<ellipse cx="676.739" cy="309.77" rx="0.528303" ry="0.560165" fill="white"/>
<ellipse cx="32.2257" cy="365.786" rx="0.528287" ry="0.56015" fill="white"/>
<ellipse cx="111.469" cy="365.786" rx="0.528289" ry="0.56015" fill="white"/>
<ellipse cx="190.712" cy="365.786" rx="0.528289" ry="0.56015" fill="white"/>
<ellipse cx="269.956" cy="365.786" rx="0.528267" ry="0.56015" fill="white"/>
<ellipse cx="349.199" cy="365.786" rx="0.528289" ry="0.56015" fill="white"/>
<ellipse cx="428.443" cy="365.786" rx="0.528332" ry="0.56015" fill="white"/>
<ellipse cx="507.686" cy="365.786" rx="0.528289" ry="0.56015" fill="white"/>
<ellipse cx="586.929" cy="365.786" rx="0.528274" ry="0.56015" fill="white"/>
<ellipse cx="666.173" cy="365.786" rx="0.528274" ry="0.56015" fill="white"/>
<ellipse cx="745.416" cy="365.786" rx="0.528303" ry="0.56015" fill="white"/>
<ellipse cx="63.923" cy="421.803" rx="0.528288" ry="0.560181" fill="white"/>
<ellipse cx="143.166" cy="421.803" rx="0.528289" ry="0.560181" fill="white"/>
<ellipse cx="222.41" cy="421.803" rx="0.528289" ry="0.560181" fill="white"/>
<ellipse cx="301.653" cy="421.803" rx="0.528289" ry="0.560181" fill="white"/>
<ellipse cx="380.897" cy="421.803" rx="0.528289" ry="0.560181" fill="white"/>
<ellipse cx="460.14" cy="421.803" rx="0.528289" ry="0.560181" fill="white"/>
<ellipse cx="539.383" cy="421.803" rx="0.528216" ry="0.560181" fill="white"/>
<ellipse cx="618.627" cy="421.803" rx="0.528274" ry="0.560181" fill="white"/>
<ellipse cx="697.87" cy="421.803" rx="0.528303" ry="0.560181" fill="white"/>
<ellipse cx="777.113" cy="421.803" rx="0.528274" ry="0.560181" fill="white"/>
<ellipse cx="21.6599" cy="477.819" rx="0.528287" ry="0.56015" fill="white"/>
<ellipse cx="100.903" cy="477.819" rx="0.528289" ry="0.56015" fill="white"/>
<ellipse cx="180.147" cy="477.819" rx="0.528289" ry="0.56015" fill="white"/>
<ellipse cx="259.39" cy="477.819" rx="0.528281" ry="0.56015" fill="white"/>
<ellipse cx="338.633" cy="477.819" rx="0.528289" ry="0.56015" fill="white"/>
<ellipse cx="417.877" cy="477.819" rx="0.528332" ry="0.56015" fill="white"/>
<ellipse cx="497.12" cy="477.819" rx="0.528289" ry="0.56015" fill="white"/>
<ellipse cx="576.364" cy="477.819" rx="0.528303" ry="0.56015" fill="white"/>
<ellipse cx="655.607" cy="477.819" rx="0.528274" ry="0.56015" fill="white"/>
<ellipse cx="734.85" cy="477.819" rx="0.528274" ry="0.56015" fill="white"/>
<ellipse cx="37.5086" cy="533.836" rx="0.528287" ry="0.560181" fill="white"/>
<ellipse cx="116.752" cy="533.836" rx="0.528289" ry="0.560181" fill="white"/>
<ellipse cx="195.995" cy="533.836" rx="0.528289" ry="0.560181" fill="white"/>
<ellipse cx="275.239" cy="533.836" rx="0.528267" ry="0.560181" fill="white"/>
<ellipse cx="354.482" cy="533.836" rx="0.528274" ry="0.560181" fill="white"/>
<ellipse cx="433.725" cy="533.836" rx="0.528303" ry="0.560181" fill="white"/>
<ellipse cx="512.969" cy="533.836" rx="0.528332" ry="0.560181" fill="white"/>
<ellipse cx="592.212" cy="533.836" rx="0.528274" ry="0.560181" fill="white"/>
<ellipse cx="671.456" cy="533.836" rx="0.528303" ry="0.560181" fill="white"/>
<ellipse cx="750.699" cy="533.836" rx="0.528274" ry="0.560181" fill="white"/>
<ellipse cx="74.4887" cy="595.453" rx="0.528287" ry="0.56015" fill="white"/>
<ellipse cx="153.732" cy="595.453" rx="0.528274" ry="0.56015" fill="white"/>
<ellipse cx="232.976" cy="595.453" rx="0.528296" ry="0.56015" fill="white"/>
<ellipse cx="312.219" cy="595.453" rx="0.528289" ry="0.56015" fill="white"/>
<ellipse cx="391.462" cy="595.453" rx="0.528274" ry="0.56015" fill="white"/>
<ellipse cx="470.706" cy="595.453" rx="0.528289" ry="0.56015" fill="white"/>
<ellipse cx="549.949" cy="595.453" rx="0.528332" ry="0.56015" fill="white"/>
<ellipse cx="629.193" cy="595.453" rx="0.528303" ry="0.56015" fill="white"/>
<ellipse cx="708.436" cy="595.453" rx="0.528274" ry="0.56015" fill="white"/>
<ellipse cx="787.679" cy="595.453" rx="0.528274" ry="0.56015" fill="white"/>
<ellipse cx="42.7913" cy="657.071" rx="0.528287" ry="0.560181" fill="white"/>
<ellipse cx="122.035" cy="657.071" rx="0.528289" ry="0.560181" fill="white"/>
<ellipse cx="201.278" cy="657.071" rx="0.528289" ry="0.560181" fill="white"/>
<ellipse cx="280.522" cy="657.071" rx="0.528289" ry="0.560181" fill="white"/>
<ellipse cx="359.765" cy="657.071" rx="0.528289" ry="0.560181" fill="white"/>
<ellipse cx="439.008" cy="657.071" rx="0.52823" ry="0.560181" fill="white"/>
<ellipse cx="518.252" cy="657.071" rx="0.528289" ry="0.560181" fill="white"/>
<ellipse cx="597.495" cy="657.071" rx="0.528274" ry="0.560181" fill="white"/>
<ellipse cx="676.739" cy="657.071" rx="0.528303" ry="0.560181" fill="white"/>
<ellipse cx="755.982" cy="657.071" rx="0.528274" ry="0.560181" fill="white"/>
<ellipse cx="85.0546" cy="717.569" rx="0.528292" ry="0.560119" fill="white"/>
<ellipse cx="164.298" cy="717.569" rx="0.528274" ry="0.560119" fill="white"/>
<ellipse cx="243.541" cy="717.569" rx="0.528318" ry="0.560119" fill="white"/>
<ellipse cx="322.785" cy="717.569" rx="0.528289" ry="0.560119" fill="white"/>
<ellipse cx="402.028" cy="717.569" rx="0.528274" ry="0.560119" fill="white"/>
<ellipse cx="481.272" cy="717.569" rx="0.528303" ry="0.560119" fill="white"/>
<ellipse cx="560.515" cy="717.569" rx="0.528332" ry="0.560119" fill="white"/>
<ellipse cx="639.758" cy="717.569" rx="0.528274" ry="0.560119" fill="white"/>
<ellipse cx="719.002" cy="717.569" rx="0.528303" ry="0.560119" fill="white"/>
<ellipse cx="53.3573" cy="779.187" rx="0.528287" ry="0.560181" fill="white"/>
<ellipse cx="132.601" cy="779.187" rx="0.528274" ry="0.560181" fill="white"/>
<ellipse cx="211.844" cy="779.187" rx="0.528289" ry="0.560181" fill="white"/>
<ellipse cx="291.088" cy="779.187" rx="0.528318" ry="0.560181" fill="white"/>
<ellipse cx="370.331" cy="779.187" rx="0.528289" ry="0.560181" fill="white"/>
<ellipse cx="449.574" cy="779.187" rx="0.528289" ry="0.560181" fill="white"/>
<ellipse cx="528.818" cy="779.187" rx="0.528303" ry="0.560181" fill="white"/>
<ellipse cx="608.061" cy="779.187" rx="0.528274" ry="0.560181" fill="white"/>
<ellipse cx="687.304" cy="779.187" rx="0.528274" ry="0.560181" fill="white"/>
<ellipse cx="766.548" cy="779.187" rx="0.528303" ry="0.560181" fill="white"/>
<ellipse cx="21.6599" cy="840.805" rx="0.528287" ry="0.56015" fill="white"/>
<ellipse cx="100.903" cy="840.805" rx="0.528289" ry="0.56015" fill="white"/>
<ellipse cx="180.147" cy="840.805" rx="0.528289" ry="0.56015" fill="white"/>
<ellipse cx="259.39" cy="840.805" rx="0.528281" ry="0.56015" fill="white"/>
<ellipse cx="338.633" cy="840.805" rx="0.528289" ry="0.56015" fill="white"/>
<ellipse cx="417.877" cy="840.805" rx="0.528332" ry="0.56015" fill="white"/>
<ellipse cx="497.12" cy="840.805" rx="0.528289" ry="0.56015" fill="white"/>
<ellipse cx="576.364" cy="840.805" rx="0.528303" ry="0.56015" fill="white"/>
<ellipse cx="655.607" cy="840.805" rx="0.528274" ry="0.56015" fill="white"/>
<ellipse cx="734.85" cy="840.805" rx="0.528274" ry="0.56015" fill="white"/>
<ellipse cx="53.3573" cy="902.423" rx="0.528287" ry="0.560088" fill="white"/>
<ellipse cx="132.601" cy="902.423" rx="0.528274" ry="0.560088" fill="white"/>
<ellipse cx="211.844" cy="902.423" rx="0.528289" ry="0.560088" fill="white"/>
<ellipse cx="291.088" cy="902.423" rx="0.528318" ry="0.560088" fill="white"/>
<ellipse cx="370.331" cy="902.423" rx="0.528289" ry="0.560088" fill="white"/>
<ellipse cx="449.574" cy="902.423" rx="0.528289" ry="0.560088" fill="white"/>
<ellipse cx="528.818" cy="902.423" rx="0.528303" ry="0.560088" fill="white"/>
<ellipse cx="608.061" cy="902.423" rx="0.528274" ry="0.560088" fill="white"/>
<ellipse cx="687.304" cy="902.423" rx="0.528274" ry="0.560088" fill="white"/>
<ellipse cx="32.2257" cy="958.44" rx="0.528287" ry="0.56015" fill="white"/>
<ellipse cx="111.469" cy="958.44" rx="0.528289" ry="0.56015" fill="white"/>
<ellipse cx="190.712" cy="958.44" rx="0.528289" ry="0.56015" fill="white"/>
<ellipse cx="269.956" cy="958.44" rx="0.528267" ry="0.56015" fill="white"/>
<ellipse cx="349.199" cy="958.44" rx="0.528289" ry="0.56015" fill="white"/>
<ellipse cx="428.443" cy="958.44" rx="0.528332" ry="0.56015" fill="white"/>
<ellipse cx="507.686" cy="958.44" rx="0.528289" ry="0.56015" fill="white"/>
<ellipse cx="586.929" cy="958.44" rx="0.528274" ry="0.56015" fill="white"/>
<ellipse cx="666.173" cy="958.44" rx="0.528274" ry="0.56015" fill="white"/>
<ellipse cx="666.173" cy="958.44" rx="0.528274" ry="0.56015" fill="white"/>
<ellipse cx="766.548" cy="902.423" rx="0.528303" ry="0.560088" fill="white"/>
<ellipse cx="39.6217" cy="79.5433" rx="1.05658" ry="1.12033" fill="white"/>
<ellipse cx="198.108" cy="85.1448" rx="1.05658" ry="1.12032" fill="white"/>
<ellipse cx="356.595" cy="79.5433" rx="1.05658" ry="1.12033" fill="white"/>
<ellipse cx="515.082" cy="73.9416" rx="1.05654" ry="1.12032" fill="white"/>
<ellipse cx="673.569" cy="79.5433" rx="1.05658" ry="1.12033" fill="white"/>
<ellipse cx="832.055" cy="85.1448" rx="1.05647" ry="1.12032" fill="white"/>
<ellipse cx="103.016" cy="191.576" rx="1.05657" ry="1.12033" fill="white"/>
<ellipse cx="261.503" cy="197.178" rx="1.05655" ry="1.12033" fill="white"/>
<ellipse cx="419.99" cy="191.576" rx="1.05654" ry="1.12033" fill="white"/>
<ellipse cx="578.477" cy="185.974" rx="1.05658" ry="1.12033" fill="white"/>
<ellipse cx="736.964" cy="191.576" rx="1.05655" ry="1.12033" fill="white"/>
<ellipse cx="895.45" cy="197.178" rx="1.05658" ry="1.12033" fill="white"/>
<ellipse cx="76.6021" cy="304.729" rx="1.05658" ry="1.12033" fill="white"/>
<ellipse cx="235.089" cy="310.33" rx="1.05658" ry="1.12033" fill="white"/>
<ellipse cx="393.576" cy="304.729" rx="1.05658" ry="1.12033" fill="white"/>
<ellipse cx="552.062" cy="299.127" rx="1.05661" ry="1.12031" fill="white"/>
<ellipse cx="710.549" cy="304.729" rx="1.05655" ry="1.12033" fill="white"/>
<ellipse cx="869.036" cy="309.21" rx="1.05658" ry="1.12033" fill="white"/>
<ellipse cx="50.1875" cy="416.762" rx="1.05658" ry="1.12033" fill="white"/>
<ellipse cx="208.674" cy="422.363" rx="1.05657" ry="1.12033" fill="white"/>
<ellipse cx="367.161" cy="416.762" rx="1.05657" ry="1.12033" fill="white"/>
<ellipse cx="525.648" cy="411.16" rx="1.05664" ry="1.12033" fill="white"/>
<ellipse cx="684.135" cy="416.762" rx="1.05658" ry="1.12033" fill="white"/>
<ellipse cx="842.621" cy="421.243" rx="1.05647" ry="1.12033" fill="white"/>
<ellipse cx="134.714" cy="528.794" rx="1.05659" ry="1.12033" fill="white"/>
<ellipse cx="293.201" cy="534.396" rx="1.05658" ry="1.12036" fill="white"/>
<ellipse cx="451.687" cy="528.794" rx="1.05657" ry="1.12033" fill="white"/>
<ellipse cx="610.174" cy="523.192" rx="1.05658" ry="1.12033" fill="white"/>
<ellipse cx="768.661" cy="528.794" rx="1.05658" ry="1.12033" fill="white"/>
<ellipse cx="927.148" cy="533.276" rx="1.05647" ry="1.12033" fill="white"/>
<ellipse cx="35.9237" cy="640.827" rx="1.05658" ry="1.12033" fill="white"/>
<ellipse cx="194.41" cy="646.428" rx="1.05657" ry="1.12033" fill="white"/>
<ellipse cx="352.897" cy="640.827" rx="1.05658" ry="1.12033" fill="white"/>
<ellipse cx="511.384" cy="635.225" rx="1.05658" ry="1.12033" fill="white"/>
<ellipse cx="669.871" cy="640.827" rx="1.05658" ry="1.12033" fill="white"/>
<ellipse cx="828.358" cy="645.308" rx="1.05649" ry="1.12036" fill="white"/>
<ellipse cx="48.0744" cy="737.175" rx="1.05658" ry="1.12033" fill="white"/>
<ellipse cx="206.561" cy="742.777" rx="1.05658" ry="1.12033" fill="white"/>
<ellipse cx="365.048" cy="737.175" rx="1.05658" ry="1.12033" fill="white"/>
<ellipse cx="523.535" cy="731.573" rx="1.05655" ry="1.12033" fill="white"/>
<ellipse cx="682.021" cy="737.175" rx="1.05658" ry="1.12033" fill="white"/>
<ellipse cx="840.508" cy="742.777" rx="1.05658" ry="1.12033" fill="white"/>
<ellipse cx="86.6395" cy="857.05" rx="1.05658" ry="1.12033" fill="white"/>
<ellipse cx="245.126" cy="862.652" rx="1.05655" ry="1.1203" fill="white"/>
<ellipse cx="403.613" cy="857.05" rx="1.05658" ry="1.12033" fill="white"/>
<ellipse cx="562.1" cy="851.449" rx="1.05652" ry="1.12033" fill="white"/>
<ellipse cx="720.586" cy="857.05" rx="1.05655" ry="1.12033" fill="white"/>
<ellipse cx="879.073" cy="862.652" rx="1.05661" ry="1.1203" fill="white"/>
<ellipse cx="761.264" cy="956.759" rx="1.05658" ry="1.12036" fill="white"/>
<ellipse cx="155.845" cy="34.7301" rx="1.05657" ry="1.12032" fill="white"/>
<ellipse cx="314.332" cy="29.1286" rx="1.05657" ry="1.12032" fill="white"/>
<ellipse cx="472.819" cy="23.5269" rx="1.05657" ry="1.12033" fill="white"/>
<ellipse cx="631.306" cy="29.1286" rx="1.05658" ry="1.12032" fill="white"/>
<ellipse cx="789.792" cy="34.7301" rx="1.05661" ry="1.12032" fill="white"/>
<ellipse cx="124.148" cy="146.763" rx="1.05658" ry="1.12035" fill="white"/>
<ellipse cx="282.635" cy="141.161" rx="1.05658" ry="1.12033" fill="white"/>
<ellipse cx="441.122" cy="135.56" rx="1.05663" ry="1.12033" fill="white"/>
<ellipse cx="599.608" cy="141.161" rx="1.05661" ry="1.12033" fill="white"/>
<ellipse cx="758.095" cy="146.763" rx="1.05655" ry="1.12035" fill="white"/>
<ellipse cx="29.0559" cy="254.314" rx="1.05658" ry="1.12033" fill="white"/>
<ellipse cx="187.543" cy="259.916" rx="1.05657" ry="1.12031" fill="white"/>
<ellipse cx="346.029" cy="254.314" rx="1.05658" ry="1.12033" fill="white"/>
<ellipse cx="504.516" cy="248.712" rx="1.0566" ry="1.12033" fill="white"/>
<ellipse cx="663.003" cy="254.314" rx="1.05655" ry="1.12033" fill="white"/>
<ellipse cx="821.49" cy="258.796" rx="1.05658" ry="1.12033" fill="white"/>
<ellipse cx="161.128" cy="371.948" rx="1.05657" ry="1.12033" fill="white"/>
<ellipse cx="319.615" cy="366.347" rx="1.05657" ry="1.1203" fill="white"/>
<ellipse cx="478.102" cy="360.745" rx="1.05663" ry="1.12033" fill="white"/>
<ellipse cx="636.589" cy="366.347" rx="1.05658" ry="1.1203" fill="white"/>
<ellipse cx="795.075" cy="371.948" rx="1.05658" ry="1.12033" fill="white"/>
<ellipse cx="134.714" cy="483.981" rx="1.05659" ry="1.12033" fill="white"/>
<ellipse cx="293.201" cy="478.379" rx="1.05658" ry="1.12033" fill="white"/>
<ellipse cx="451.687" cy="472.778" rx="1.05657" ry="1.12033" fill="white"/>
<ellipse cx="610.174" cy="478.379" rx="1.05658" ry="1.12033" fill="white"/>
<ellipse cx="768.661" cy="483.981" rx="1.05658" ry="1.12033" fill="white"/>
<ellipse cx="60.7533" cy="590.412" rx="1.05658" ry="1.1203" fill="white"/>
<ellipse cx="219.24" cy="596.014" rx="1.05658" ry="1.12033" fill="white"/>
<ellipse cx="377.727" cy="590.412" rx="1.05658" ry="1.1203" fill="white"/>
<ellipse cx="536.214" cy="584.81" rx="1.05664" ry="1.12033" fill="white"/>
<ellipse cx="694.7" cy="590.412" rx="1.05661" ry="1.1203" fill="white"/>
<ellipse cx="853.187" cy="594.893" rx="1.05658" ry="1.12033" fill="white"/>
<ellipse cx="120.45" cy="706.926" rx="1.05658" ry="1.12033" fill="white"/>
<ellipse cx="278.937" cy="701.325" rx="1.0566" ry="1.12033" fill="white"/>
<ellipse cx="437.423" cy="695.723" rx="1.05663" ry="1.12033" fill="white"/>
<ellipse cx="595.91" cy="701.325" rx="1.05658" ry="1.12033" fill="white"/>
<ellipse cx="754.397" cy="706.926" rx="1.05658" ry="1.12033" fill="white"/>
<ellipse cx="132.601" cy="804.395" rx="1.05657" ry="1.12033" fill="white"/>
<ellipse cx="291.087" cy="798.793" rx="1.05657" ry="1.1203" fill="white"/>
<ellipse cx="449.574" cy="793.191" rx="1.05663" ry="1.12036" fill="white"/>
<ellipse cx="608.061" cy="798.793" rx="1.05658" ry="1.1203" fill="white"/>
<ellipse cx="766.548" cy="804.395" rx="1.05658" ry="1.12033" fill="white"/>
<ellipse cx="12.679" cy="918.668" rx="1.05658" ry="1.1203" fill="white"/>
<ellipse cx="171.166" cy="924.27" rx="1.05657" ry="1.1203" fill="white"/>
<ellipse cx="329.652" cy="918.668" rx="1.05658" ry="1.1203" fill="white"/>
<ellipse cx="488.139" cy="913.067" rx="1.05654" ry="1.1203" fill="white"/>
<ellipse cx="646.626" cy="918.668" rx="1.05658" ry="1.1203" fill="white"/>
<ellipse cx="805.113" cy="924.27" rx="1.05649" ry="1.1203" fill="white"/>
<ellipse cx="796.908" cy="0.560165" rx="0.528286" ry="0.560165" fill="white"/>
<ellipse cx="876.152" cy="0.560165" rx="0.528289" ry="0.560165" fill="white"/>
<ellipse cx="955.395" cy="0.560165" rx="0.528289" ry="0.560165" fill="white"/>
<ellipse cx="1034.64" cy="0.560165" rx="0.528281" ry="0.560165" fill="white"/>
<ellipse cx="1113.88" cy="0.560165" rx="0.528289" ry="0.560165" fill="white"/>
<ellipse cx="1193.13" cy="0.560165" rx="0.528289" ry="0.560165" fill="white"/>
<ellipse cx="1272.37" cy="0.560165" rx="0.52823" ry="0.560165" fill="white"/>
<ellipse cx="1351.61" cy="0.560165" rx="0.528274" ry="0.560165" fill="white"/>
<ellipse cx="1430.86" cy="0.560165" rx="0.528303" ry="0.560165" fill="white"/>
<ellipse cx="1510.1" cy="0.560165" rx="0.528303" ry="0.560165" fill="white"/>
<ellipse cx="833.889" cy="56.5764" rx="0.528289" ry="0.560165" fill="white"/>
<ellipse cx="913.132" cy="56.5764" rx="0.528299" ry="0.560165" fill="white"/>
<ellipse cx="992.375" cy="56.5764" rx="0.528289" ry="0.560165" fill="white"/>
<ellipse cx="1071.62" cy="56.5764" rx="0.528274" ry="0.560165" fill="white"/>
<ellipse cx="1150.86" cy="56.5764" rx="0.528303" ry="0.560165" fill="white"/>
<ellipse cx="1230.11" cy="56.5764" rx="0.528289" ry="0.560165" fill="white"/>
<ellipse cx="1309.35" cy="56.5764" rx="0.528303" ry="0.560165" fill="white"/>
<ellipse cx="1388.59" cy="56.5764" rx="0.528274" ry="0.560165" fill="white"/>
<ellipse cx="1467.84" cy="56.5764" rx="0.528303" ry="0.560165" fill="white"/>
<ellipse cx="1547.08" cy="56.5764" rx="0.528303" ry="0.560165" fill="white"/>
<ellipse cx="818.04" cy="112.593" rx="0.528289" ry="0.560165" fill="white"/>
<ellipse cx="897.283" cy="112.593" rx="0.528289" ry="0.560165" fill="white"/>
<ellipse cx="976.527" cy="112.593" rx="0.528289" ry="0.560165" fill="white"/>
<ellipse cx="1055.77" cy="112.593" rx="0.528303" ry="0.560165" fill="white"/>
<ellipse cx="1135.01" cy="112.593" rx="0.528289" ry="0.560165" fill="white"/>
<ellipse cx="1214.26" cy="112.593" rx="0.528289" ry="0.560165" fill="white"/>
<ellipse cx="1293.5" cy="112.593" rx="0.528274" ry="0.560165" fill="white"/>
<ellipse cx="1372.74" cy="112.593" rx="0.528303" ry="0.560165" fill="white"/>
<ellipse cx="1451.99" cy="112.593" rx="0.528303" ry="0.560165" fill="white"/>
<ellipse cx="1531.23" cy="112.593" rx="0.528274" ry="0.560165" fill="white"/>
<ellipse cx="833.889" cy="168.609" rx="0.528289" ry="0.560165" fill="white"/>
<ellipse cx="913.132" cy="168.609" rx="0.528299" ry="0.560165" fill="white"/>
<ellipse cx="992.375" cy="168.609" rx="0.528289" ry="0.560165" fill="white"/>
<ellipse cx="1071.62" cy="168.609" rx="0.528274" ry="0.560165" fill="white"/>
<ellipse cx="1150.86" cy="168.609" rx="0.528303" ry="0.560165" fill="white"/>
<ellipse cx="1230.11" cy="168.609" rx="0.528289" ry="0.560165" fill="white"/>
<ellipse cx="1309.35" cy="168.609" rx="0.528303" ry="0.560165" fill="white"/>
<ellipse cx="1388.59" cy="168.609" rx="0.528274" ry="0.560165" fill="white"/>
<ellipse cx="1467.84" cy="168.609" rx="0.528303" ry="0.560165" fill="white"/>
<ellipse cx="1547.08" cy="168.609" rx="0.528303" ry="0.560165" fill="white"/>
<ellipse cx="807.474" cy="225.746" rx="0.528287" ry="0.560165" fill="white"/>
<ellipse cx="886.718" cy="225.746" rx="0.528289" ry="0.560165" fill="white"/>
<ellipse cx="965.961" cy="225.746" rx="0.528281" ry="0.560165" fill="white"/>
<ellipse cx="1045.2" cy="225.746" rx="0.52831" ry="0.560165" fill="white"/>
<ellipse cx="1124.45" cy="225.746" rx="0.528289" ry="0.560165" fill="white"/>
<ellipse cx="1203.69" cy="225.746" rx="0.528289" ry="0.560165" fill="white"/>
<ellipse cx="1282.93" cy="225.746" rx="0.528332" ry="0.560165" fill="white"/>
<ellipse cx="1362.18" cy="225.746" rx="0.528274" ry="0.560165" fill="white"/>
<ellipse cx="1441.42" cy="225.746" rx="0.528303" ry="0.560165" fill="white"/>
<ellipse cx="1520.66" cy="225.746" rx="0.528274" ry="0.560165" fill="white"/>
<ellipse cx="839.171" cy="281.762" rx="0.528287" ry="0.560165" fill="white"/>
<ellipse cx="918.415" cy="281.762" rx="0.528289" ry="0.560165" fill="white"/>
<ellipse cx="997.658" cy="281.762" rx="0.52831" ry="0.560165" fill="white"/>
<ellipse cx="1076.9" cy="281.762" rx="0.528289" ry="0.560165" fill="white"/>
<ellipse cx="1156.15" cy="281.762" rx="0.528289" ry="0.560165" fill="white"/>
<ellipse cx="1235.39" cy="281.762" rx="0.528332" ry="0.560165" fill="white"/>
<ellipse cx="1314.63" cy="281.762" rx="0.528216" ry="0.560165" fill="white"/>
<ellipse cx="1393.88" cy="281.762" rx="0.528303" ry="0.560165" fill="white"/>
<ellipse cx="1473.12" cy="281.762" rx="0.528274" ry="0.560165" fill="white"/>
<ellipse cx="828.606" cy="337.778" rx="0.528287" ry="0.560165" fill="white"/>
<ellipse cx="907.849" cy="337.778" rx="0.528274" ry="0.560165" fill="white"/>
<ellipse cx="987.092" cy="337.778" rx="0.528289" ry="0.560165" fill="white"/>
<ellipse cx="1066.34" cy="337.778" rx="0.528318" ry="0.560165" fill="white"/>
<ellipse cx="1145.58" cy="337.778" rx="0.528289" ry="0.560165" fill="white"/>
<ellipse cx="1224.82" cy="337.778" rx="0.52823" ry="0.560165" fill="white"/>
<ellipse cx="1304.07" cy="337.778" rx="0.528332" ry="0.560165" fill="white"/>
<ellipse cx="1383.31" cy="337.778" rx="0.528303" ry="0.560165" fill="white"/>
<ellipse cx="1462.55" cy="337.778" rx="0.528303" ry="0.560165" fill="white"/>
<ellipse cx="1541.8" cy="337.778" rx="0.528274" ry="0.560165" fill="white"/>
<ellipse cx="860.303" cy="393.795" rx="0.528292" ry="0.56015" fill="white"/>
<ellipse cx="939.546" cy="393.795" rx="0.528289" ry="0.56015" fill="white"/>
<ellipse cx="1018.79" cy="393.795" rx="0.52831" ry="0.56015" fill="white"/>
<ellipse cx="1098.03" cy="393.795" rx="0.528289" ry="0.56015" fill="white"/>
<ellipse cx="1177.28" cy="393.795" rx="0.528274" ry="0.56015" fill="white"/>
<ellipse cx="1256.52" cy="393.795" rx="0.528332" ry="0.56015" fill="white"/>
<ellipse cx="1335.76" cy="393.795" rx="0.528303" ry="0.56015" fill="white"/>
<ellipse cx="1415.01" cy="393.795" rx="0.528303" ry="0.56015" fill="white"/>
<ellipse cx="1494.25" cy="393.795" rx="0.528274" ry="0.56015" fill="white"/>
<ellipse cx="1573.49" cy="393.795" rx="0.528477" ry="0.56015" fill="white"/>
<ellipse cx="818.04" cy="449.811" rx="0.528289" ry="0.56015" fill="white"/>
<ellipse cx="897.283" cy="449.811" rx="0.528289" ry="0.56015" fill="white"/>
<ellipse cx="976.527" cy="449.811" rx="0.528289" ry="0.56015" fill="white"/>
<ellipse cx="1055.77" cy="449.811" rx="0.528303" ry="0.56015" fill="white"/>
<ellipse cx="1135.01" cy="449.811" rx="0.528289" ry="0.56015" fill="white"/>
<ellipse cx="1214.26" cy="449.811" rx="0.528289" ry="0.56015" fill="white"/>
<ellipse cx="1293.5" cy="449.811" rx="0.528274" ry="0.56015" fill="white"/>
<ellipse cx="1372.74" cy="449.811" rx="0.528303" ry="0.56015" fill="white"/>
<ellipse cx="1451.99" cy="449.811" rx="0.528303" ry="0.56015" fill="white"/>
<ellipse cx="1531.23" cy="449.811" rx="0.528274" ry="0.56015" fill="white"/>
<ellipse cx="833.889" cy="505.827" rx="0.528289" ry="0.56015" fill="white"/>
<ellipse cx="913.132" cy="505.827" rx="0.528299" ry="0.56015" fill="white"/>
<ellipse cx="992.375" cy="505.827" rx="0.528289" ry="0.56015" fill="white"/>
<ellipse cx="1071.62" cy="505.827" rx="0.528274" ry="0.56015" fill="white"/>
<ellipse cx="1150.86" cy="505.827" rx="0.528303" ry="0.56015" fill="white"/>
<ellipse cx="1230.11" cy="505.827" rx="0.528289" ry="0.56015" fill="white"/>
<ellipse cx="1309.35" cy="505.827" rx="0.528303" ry="0.56015" fill="white"/>
<ellipse cx="1388.59" cy="505.827" rx="0.528274" ry="0.56015" fill="white"/>
<ellipse cx="1467.84" cy="505.827" rx="0.528303" ry="0.56015" fill="white"/>
<ellipse cx="1547.08" cy="505.827" rx="0.528303" ry="0.56015" fill="white"/>
<ellipse cx="870.869" cy="567.445" rx="0.528285" ry="0.56015" fill="white"/>
<ellipse cx="950.112" cy="567.445" rx="0.528289" ry="0.56015" fill="white"/>
<ellipse cx="1029.36" cy="567.445" rx="0.528281" ry="0.56015" fill="white"/>
<ellipse cx="1108.6" cy="567.445" rx="0.528289" ry="0.56015" fill="white"/>
<ellipse cx="1187.84" cy="567.445" rx="0.528332" ry="0.56015" fill="white"/>
<ellipse cx="1267.09" cy="567.445" rx="0.52823" ry="0.56015" fill="white"/>
<ellipse cx="1346.33" cy="567.445" rx="0.528303" ry="0.56015" fill="white"/>
<ellipse cx="1425.57" cy="567.445" rx="0.528274" ry="0.56015" fill="white"/>
<ellipse cx="1504.82" cy="567.445" rx="0.528274" ry="0.56015" fill="white"/>
<ellipse cx="1584.06" cy="567.445" rx="0.528303" ry="0.56015" fill="white"/>
<ellipse cx="839.171" cy="629.063" rx="0.528287" ry="0.560181" fill="white"/>
<ellipse cx="918.415" cy="629.063" rx="0.528289" ry="0.560181" fill="white"/>
<ellipse cx="997.658" cy="629.063" rx="0.52831" ry="0.560181" fill="white"/>
<ellipse cx="1076.9" cy="629.063" rx="0.528289" ry="0.560181" fill="white"/>
<ellipse cx="1156.15" cy="629.063" rx="0.528289" ry="0.560181" fill="white"/>
<ellipse cx="1235.39" cy="629.063" rx="0.528332" ry="0.560181" fill="white"/>
<ellipse cx="1314.63" cy="629.063" rx="0.528216" ry="0.560181" fill="white"/>
<ellipse cx="1393.88" cy="629.063" rx="0.528303" ry="0.560181" fill="white"/>
<ellipse cx="1473.12" cy="629.063" rx="0.528274" ry="0.560181" fill="white"/>
<ellipse cx="1552.36" cy="629.063" rx="0.528274" ry="0.560181" fill="white"/>
<ellipse cx="881.435" cy="689.561" rx="0.528285" ry="0.560181" fill="white"/>
<ellipse cx="960.678" cy="689.561" rx="0.528281" ry="0.560181" fill="white"/>
<ellipse cx="1039.92" cy="689.561" rx="0.52831" ry="0.560181" fill="white"/>
<ellipse cx="1119.16" cy="689.561" rx="0.528274" ry="0.560181" fill="white"/>
<ellipse cx="1198.41" cy="689.561" rx="0.528274" ry="0.560181" fill="white"/>
<ellipse cx="1277.65" cy="689.561" rx="0.528289" ry="0.560181" fill="white"/>
<ellipse cx="1356.9" cy="689.561" rx="0.528303" ry="0.560181" fill="white"/>
<ellipse cx="1436.14" cy="689.561" rx="0.528274" ry="0.560181" fill="white"/>
<ellipse cx="1515.38" cy="689.561" rx="0.528303" ry="0.560181" fill="white"/>
<ellipse cx="849.737" cy="751.179" rx="0.528287" ry="0.560181" fill="white"/>
<ellipse cx="928.981" cy="751.179" rx="0.528289" ry="0.560181" fill="white"/>
<ellipse cx="1008.22" cy="751.179" rx="0.528296" ry="0.560181" fill="white"/>
<ellipse cx="1087.47" cy="751.179" rx="0.528289" ry="0.560181" fill="white"/>
<ellipse cx="1166.71" cy="751.179" rx="0.528274" ry="0.560181" fill="white"/>
<ellipse cx="1245.95" cy="751.179" rx="0.528274" ry="0.560181" fill="white"/>
<ellipse cx="1325.2" cy="751.179" rx="0.528303" ry="0.560181" fill="white"/>
<ellipse cx="1404.44" cy="751.179" rx="0.528303" ry="0.560181" fill="white"/>
<ellipse cx="1483.68" cy="751.179" rx="0.528274" ry="0.560181" fill="white"/>
<ellipse cx="1562.93" cy="751.179" rx="0.528303" ry="0.560181" fill="white"/>
<ellipse cx="818.04" cy="812.797" rx="0.528289" ry="0.56015" fill="white"/>
<ellipse cx="897.283" cy="812.797" rx="0.528289" ry="0.56015" fill="white"/>
<ellipse cx="976.527" cy="812.797" rx="0.528289" ry="0.56015" fill="white"/>
<ellipse cx="1055.77" cy="812.797" rx="0.528303" ry="0.56015" fill="white"/>
<ellipse cx="1135.01" cy="812.797" rx="0.528289" ry="0.56015" fill="white"/>
<ellipse cx="1214.26" cy="812.797" rx="0.528289" ry="0.56015" fill="white"/>
<ellipse cx="1293.5" cy="812.797" rx="0.528274" ry="0.56015" fill="white"/>
<ellipse cx="1372.74" cy="812.797" rx="0.528303" ry="0.56015" fill="white"/>
<ellipse cx="1451.99" cy="812.797" rx="0.528303" ry="0.56015" fill="white"/>
<ellipse cx="1531.23" cy="812.797" rx="0.528274" ry="0.56015" fill="white"/>
<ellipse cx="849.737" cy="874.415" rx="0.528287" ry="0.56015" fill="white"/>
<ellipse cx="928.981" cy="874.415" rx="0.528289" ry="0.56015" fill="white"/>
<ellipse cx="1008.22" cy="874.415" rx="0.528296" ry="0.56015" fill="white"/>
<ellipse cx="1087.47" cy="874.415" rx="0.528289" ry="0.56015" fill="white"/>
<ellipse cx="1166.71" cy="874.415" rx="0.528274" ry="0.56015" fill="white"/>
<ellipse cx="1245.95" cy="874.415" rx="0.528274" ry="0.56015" fill="white"/>
<ellipse cx="1325.2" cy="874.415" rx="0.528303" ry="0.56015" fill="white"/>
<ellipse cx="1404.44" cy="874.415" rx="0.528303" ry="0.56015" fill="white"/>
<ellipse cx="1483.68" cy="874.415" rx="0.528274" ry="0.56015" fill="white"/>
<ellipse cx="828.606" cy="930.431" rx="0.528287" ry="0.56015" fill="white"/>
<ellipse cx="907.849" cy="930.431" rx="0.528274" ry="0.56015" fill="white"/>
<ellipse cx="987.092" cy="930.431" rx="0.528289" ry="0.56015" fill="white"/>
<ellipse cx="1066.34" cy="930.431" rx="0.528318" ry="0.56015" fill="white"/>
<ellipse cx="1145.58" cy="930.431" rx="0.528289" ry="0.56015" fill="white"/>
<ellipse cx="1224.82" cy="930.431" rx="0.52823" ry="0.56015" fill="white"/>
<ellipse cx="1304.07" cy="930.431" rx="0.528332" ry="0.56015" fill="white"/>
<ellipse cx="1383.31" cy="930.431" rx="0.528303" ry="0.56015" fill="white"/>
<ellipse cx="1462.55" cy="930.431" rx="0.528303" ry="0.56015" fill="white"/>
<ellipse cx="1462.55" cy="930.431" rx="0.528303" ry="0.56015" fill="white"/>
<ellipse cx="1562.93" cy="874.415" rx="0.528303" ry="0.56015" fill="white"/>
<ellipse cx="823.323" cy="6.16173" rx="0.528288" ry="0.560165" fill="white"/>
<ellipse cx="902.566" cy="6.16173" rx="0.528289" ry="0.560165" fill="white"/>
<ellipse cx="981.81" cy="6.16173" rx="0.528281" ry="0.560165" fill="white"/>
<ellipse cx="1061.05" cy="6.16173" rx="0.528259" ry="0.560165" fill="white"/>
<ellipse cx="1140.3" cy="6.16173" rx="0.528289" ry="0.560165" fill="white"/>
<ellipse cx="1219.54" cy="6.16173" rx="0.52823" ry="0.560165" fill="white"/>
<ellipse cx="1298.78" cy="6.16173" rx="0.528303" ry="0.560165" fill="white"/>
<ellipse cx="1378.03" cy="6.16173" rx="0.528274" ry="0.560165" fill="white"/>
<ellipse cx="1457.27" cy="6.16173" rx="0.528274" ry="0.560165" fill="white"/>
<ellipse cx="1536.51" cy="6.16173" rx="0.528303" ry="0.560165" fill="white"/>
<ellipse cx="860.303" cy="62.1781" rx="0.528292" ry="0.560165" fill="white"/>
<ellipse cx="939.546" cy="62.1781" rx="0.528289" ry="0.560165" fill="white"/>
<ellipse cx="1018.79" cy="62.1781" rx="0.52831" ry="0.560165" fill="white"/>
<ellipse cx="1098.03" cy="62.1781" rx="0.528289" ry="0.560165" fill="white"/>
<ellipse cx="1177.28" cy="62.1781" rx="0.528274" ry="0.560165" fill="white"/>
<ellipse cx="1256.52" cy="62.1781" rx="0.528332" ry="0.560165" fill="white"/>
<ellipse cx="1335.76" cy="62.1781" rx="0.528303" ry="0.560165" fill="white"/>
<ellipse cx="1415.01" cy="62.1781" rx="0.528303" ry="0.560165" fill="white"/>
<ellipse cx="1494.25" cy="62.1781" rx="0.528274" ry="0.560165" fill="white"/>
<ellipse cx="1573.49" cy="62.1781" rx="0.528477" ry="0.560165" fill="white"/>
<ellipse cx="844.454" cy="118.194" rx="0.528289" ry="0.560165" fill="white"/>
<ellipse cx="923.698" cy="118.194" rx="0.528289" ry="0.560165" fill="white"/>
<ellipse cx="1002.94" cy="118.194" rx="0.528267" ry="0.560165" fill="white"/>
<ellipse cx="1082.18" cy="118.194" rx="0.528274" ry="0.560165" fill="white"/>
<ellipse cx="1161.43" cy="118.194" rx="0.528289" ry="0.560165" fill="white"/>
<ellipse cx="1240.67" cy="118.194" rx="0.528289" ry="0.560165" fill="white"/>
<ellipse cx="1319.91" cy="118.194" rx="0.528245" ry="0.560165" fill="white"/>
<ellipse cx="1399.16" cy="118.194" rx="0.528274" ry="0.560165" fill="white"/>
<ellipse cx="1478.4" cy="118.194" rx="0.528303" ry="0.560165" fill="white"/>
<ellipse cx="1557.65" cy="118.194" rx="0.528303" ry="0.560165" fill="white"/>
<ellipse cx="860.303" cy="174.211" rx="0.528292" ry="0.560165" fill="white"/>
<ellipse cx="939.546" cy="174.211" rx="0.528289" ry="0.560165" fill="white"/>
<ellipse cx="1018.79" cy="174.211" rx="0.52831" ry="0.560165" fill="white"/>
<ellipse cx="1098.03" cy="174.211" rx="0.528289" ry="0.560165" fill="white"/>
<ellipse cx="1177.28" cy="174.211" rx="0.528274" ry="0.560165" fill="white"/>
<ellipse cx="1256.52" cy="174.211" rx="0.528332" ry="0.560165" fill="white"/>
<ellipse cx="1335.76" cy="174.211" rx="0.528303" ry="0.560165" fill="white"/>
<ellipse cx="1415.01" cy="174.211" rx="0.528303" ry="0.560165" fill="white"/>
<ellipse cx="1494.25" cy="174.211" rx="0.528274" ry="0.560165" fill="white"/>
<ellipse cx="1573.49" cy="174.211" rx="0.528477" ry="0.560165" fill="white"/>
<ellipse cx="833.889" cy="231.347" rx="0.528289" ry="0.560165" fill="white"/>
<ellipse cx="913.132" cy="231.347" rx="0.528299" ry="0.560165" fill="white"/>
<ellipse cx="992.375" cy="231.347" rx="0.528289" ry="0.560165" fill="white"/>
<ellipse cx="1071.62" cy="231.347" rx="0.528274" ry="0.560165" fill="white"/>
<ellipse cx="1150.86" cy="231.347" rx="0.528303" ry="0.560165" fill="white"/>
<ellipse cx="1230.11" cy="231.347" rx="0.528289" ry="0.560165" fill="white"/>
<ellipse cx="1309.35" cy="231.347" rx="0.528303" ry="0.560165" fill="white"/>
<ellipse cx="1388.59" cy="231.347" rx="0.528274" ry="0.560165" fill="white"/>
<ellipse cx="1467.84" cy="231.347" rx="0.528303" ry="0.560165" fill="white"/>
<ellipse cx="1547.08" cy="231.347" rx="0.528303" ry="0.560165" fill="white"/>
<ellipse cx="865.586" cy="287.364" rx="0.528289" ry="0.560165" fill="white"/>
<ellipse cx="944.83" cy="287.364" rx="0.528289" ry="0.560165" fill="white"/>
<ellipse cx="1024.07" cy="287.364" rx="0.528281" ry="0.560165" fill="white"/>
<ellipse cx="1103.32" cy="287.364" rx="0.528303" ry="0.560165" fill="white"/>
<ellipse cx="1182.56" cy="287.364" rx="0.528289" ry="0.560165" fill="white"/>
<ellipse cx="1261.8" cy="287.364" rx="0.528289" ry="0.560165" fill="white"/>
<ellipse cx="1341.05" cy="287.364" rx="0.528274" ry="0.560165" fill="white"/>
<ellipse cx="1420.29" cy="287.364" rx="0.528303" ry="0.560165" fill="white"/>
<ellipse cx="1499.53" cy="287.364" rx="0.528303" ry="0.560165" fill="white"/>
<ellipse cx="855.02" cy="343.38" rx="0.528281" ry="0.560165" fill="white"/>
<ellipse cx="934.264" cy="343.38" rx="0.528296" ry="0.560165" fill="white"/>
<ellipse cx="1013.51" cy="343.38" rx="0.528259" ry="0.560165" fill="white"/>
<ellipse cx="1092.75" cy="343.38" rx="0.528289" ry="0.560165" fill="white"/>
<ellipse cx="1171.99" cy="343.38" rx="0.528289" ry="0.560165" fill="white"/>
<ellipse cx="1251.24" cy="343.38" rx="0.528289" ry="0.560165" fill="white"/>
<ellipse cx="1330.48" cy="343.38" rx="0.528332" ry="0.560165" fill="white"/>
<ellipse cx="1409.72" cy="343.38" rx="0.528274" ry="0.560165" fill="white"/>
<ellipse cx="1488.97" cy="343.38" rx="0.528303" ry="0.560165" fill="white"/>
<ellipse cx="1568.21" cy="343.38" rx="0.528187" ry="0.560165" fill="white"/>
<ellipse cx="886.718" cy="399.396" rx="0.528289" ry="0.56015" fill="white"/>
<ellipse cx="965.961" cy="399.396" rx="0.528281" ry="0.56015" fill="white"/>
<ellipse cx="1045.2" cy="399.396" rx="0.52831" ry="0.56015" fill="white"/>
<ellipse cx="1124.45" cy="399.396" rx="0.528289" ry="0.56015" fill="white"/>
<ellipse cx="1203.69" cy="399.396" rx="0.528289" ry="0.56015" fill="white"/>
<ellipse cx="1282.93" cy="399.396" rx="0.528332" ry="0.56015" fill="white"/>
<ellipse cx="1362.18" cy="399.396" rx="0.528274" ry="0.56015" fill="white"/>
<ellipse cx="1441.42" cy="399.396" rx="0.528303" ry="0.56015" fill="white"/>
<ellipse cx="1520.66" cy="399.396" rx="0.528274" ry="0.56015" fill="white"/>
<ellipse cx="1599.91" cy="398.276" rx="0.528158" ry="0.56015" fill="white"/>
<ellipse cx="844.454" cy="455.413" rx="0.528289" ry="0.560181" fill="white"/>
<ellipse cx="923.698" cy="455.413" rx="0.528289" ry="0.560181" fill="white"/>
<ellipse cx="1002.94" cy="455.413" rx="0.528267" ry="0.560181" fill="white"/>
<ellipse cx="1082.18" cy="455.413" rx="0.528274" ry="0.560181" fill="white"/>
<ellipse cx="1161.43" cy="455.413" rx="0.528289" ry="0.560181" fill="white"/>
<ellipse cx="1240.67" cy="455.413" rx="0.528289" ry="0.560181" fill="white"/>
<ellipse cx="1319.91" cy="455.413" rx="0.528245" ry="0.560181" fill="white"/>
<ellipse cx="1399.16" cy="455.413" rx="0.528274" ry="0.560181" fill="white"/>
<ellipse cx="1478.4" cy="455.413" rx="0.528303" ry="0.560181" fill="white"/>
<ellipse cx="1557.65" cy="455.413" rx="0.528303" ry="0.560181" fill="white"/>
<ellipse cx="860.303" cy="511.429" rx="0.528292" ry="0.560181" fill="white"/>
<ellipse cx="939.546" cy="511.429" rx="0.528289" ry="0.560181" fill="white"/>
<ellipse cx="1018.79" cy="511.429" rx="0.52831" ry="0.560181" fill="white"/>
<ellipse cx="1098.03" cy="511.429" rx="0.528289" ry="0.560181" fill="white"/>
<ellipse cx="1177.28" cy="511.429" rx="0.528274" ry="0.560181" fill="white"/>
<ellipse cx="1256.52" cy="511.429" rx="0.528332" ry="0.560181" fill="white"/>
<ellipse cx="1335.76" cy="511.429" rx="0.528303" ry="0.560181" fill="white"/>
<ellipse cx="1415.01" cy="511.429" rx="0.528303" ry="0.560181" fill="white"/>
<ellipse cx="1494.25" cy="511.429" rx="0.528274" ry="0.560181" fill="white"/>
<ellipse cx="1573.49" cy="511.429" rx="0.528477" ry="0.560181" fill="white"/>
<ellipse cx="897.284" cy="573.047" rx="0.528289" ry="0.56015" fill="white"/>
<ellipse cx="976.527" cy="573.047" rx="0.528289" ry="0.56015" fill="white"/>
<ellipse cx="1055.77" cy="573.047" rx="0.528303" ry="0.56015" fill="white"/>
<ellipse cx="1135.01" cy="573.047" rx="0.528289" ry="0.56015" fill="white"/>
<ellipse cx="1214.26" cy="573.047" rx="0.528289" ry="0.56015" fill="white"/>
<ellipse cx="1293.5" cy="573.047" rx="0.528274" ry="0.56015" fill="white"/>
<ellipse cx="1372.74" cy="573.047" rx="0.528303" ry="0.56015" fill="white"/>
<ellipse cx="1451.99" cy="573.047" rx="0.528303" ry="0.56015" fill="white"/>
<ellipse cx="1531.23" cy="573.047" rx="0.528274" ry="0.56015" fill="white"/>
<ellipse cx="865.586" cy="634.665" rx="0.528289" ry="0.56015" fill="white"/>
<ellipse cx="944.83" cy="634.665" rx="0.528289" ry="0.56015" fill="white"/>
<ellipse cx="1024.07" cy="634.665" rx="0.528281" ry="0.56015" fill="white"/>
<ellipse cx="1103.32" cy="634.665" rx="0.528303" ry="0.56015" fill="white"/>
<ellipse cx="1182.56" cy="634.665" rx="0.528289" ry="0.56015" fill="white"/>
<ellipse cx="1261.8" cy="634.665" rx="0.528289" ry="0.56015" fill="white"/>
<ellipse cx="1341.05" cy="634.665" rx="0.528274" ry="0.56015" fill="white"/>
<ellipse cx="1420.29" cy="634.665" rx="0.528303" ry="0.56015" fill="white"/>
<ellipse cx="1499.53" cy="634.665" rx="0.528303" ry="0.56015" fill="white"/>
<ellipse cx="1578.78" cy="634.665" rx="0.528303" ry="0.56015" fill="white"/>
<ellipse cx="907.849" cy="695.163" rx="0.528274" ry="0.56015" fill="white"/>
<ellipse cx="987.092" cy="695.163" rx="0.528289" ry="0.56015" fill="white"/>
<ellipse cx="1066.34" cy="695.163" rx="0.528318" ry="0.56015" fill="white"/>
<ellipse cx="1145.58" cy="695.163" rx="0.528289" ry="0.56015" fill="white"/>
<ellipse cx="1224.82" cy="695.163" rx="0.52823" ry="0.56015" fill="white"/>
<ellipse cx="1304.07" cy="695.163" rx="0.528332" ry="0.56015" fill="white"/>
<ellipse cx="1383.31" cy="695.163" rx="0.528303" ry="0.56015" fill="white"/>
<ellipse cx="1462.55" cy="695.163" rx="0.528303" ry="0.56015" fill="white"/>
<ellipse cx="1541.8" cy="695.163" rx="0.528274" ry="0.56015" fill="white"/>
<ellipse cx="876.152" cy="756.781" rx="0.528289" ry="0.560181" fill="white"/>
<ellipse cx="955.395" cy="756.781" rx="0.528289" ry="0.560181" fill="white"/>
<ellipse cx="1034.64" cy="756.781" rx="0.528281" ry="0.560181" fill="white"/>
<ellipse cx="1113.88" cy="756.781" rx="0.528289" ry="0.560181" fill="white"/>
<ellipse cx="1193.13" cy="756.781" rx="0.528289" ry="0.560181" fill="white"/>
<ellipse cx="1272.37" cy="756.781" rx="0.52823" ry="0.560181" fill="white"/>
<ellipse cx="1351.61" cy="756.781" rx="0.528274" ry="0.560181" fill="white"/>
<ellipse cx="1430.86" cy="756.781" rx="0.528303" ry="0.560181" fill="white"/>
<ellipse cx="1510.1" cy="756.781" rx="0.528303" ry="0.560181" fill="white"/>
<ellipse cx="1589.34" cy="756.781" rx="0.528303" ry="0.560181" fill="white"/>
<ellipse cx="844.454" cy="818.399" rx="0.528289" ry="0.560181" fill="white"/>
<ellipse cx="923.698" cy="818.399" rx="0.528289" ry="0.560181" fill="white"/>
<ellipse cx="1002.94" cy="818.399" rx="0.528267" ry="0.560181" fill="white"/>
<ellipse cx="1082.18" cy="818.399" rx="0.528274" ry="0.560181" fill="white"/>
<ellipse cx="1161.43" cy="818.399" rx="0.528289" ry="0.560181" fill="white"/>
<ellipse cx="1240.67" cy="818.399" rx="0.528289" ry="0.560181" fill="white"/>
<ellipse cx="1319.91" cy="818.399" rx="0.528245" ry="0.560181" fill="white"/>
<ellipse cx="1399.16" cy="818.399" rx="0.528274" ry="0.560181" fill="white"/>
<ellipse cx="1478.4" cy="818.399" rx="0.528303" ry="0.560181" fill="white"/>
<ellipse cx="1557.65" cy="818.399" rx="0.528303" ry="0.560181" fill="white"/>
<ellipse cx="876.152" cy="880.017" rx="0.528289" ry="0.56015" fill="white"/>
<ellipse cx="955.395" cy="880.017" rx="0.528289" ry="0.56015" fill="white"/>
<ellipse cx="1034.64" cy="880.017" rx="0.528281" ry="0.56015" fill="white"/>
<ellipse cx="1113.88" cy="880.017" rx="0.528289" ry="0.56015" fill="white"/>
<ellipse cx="1193.13" cy="880.017" rx="0.528289" ry="0.56015" fill="white"/>
<ellipse cx="1272.37" cy="880.017" rx="0.52823" ry="0.56015" fill="white"/>
<ellipse cx="1351.61" cy="880.017" rx="0.528274" ry="0.56015" fill="white"/>
<ellipse cx="1430.86" cy="880.017" rx="0.528303" ry="0.56015" fill="white"/>
<ellipse cx="1510.1" cy="880.017" rx="0.528303" ry="0.56015" fill="white"/>
<ellipse cx="855.02" cy="936.033" rx="0.528281" ry="0.56015" fill="white"/>
<ellipse cx="934.264" cy="936.033" rx="0.528296" ry="0.56015" fill="white"/>
<ellipse cx="1013.51" cy="936.033" rx="0.528259" ry="0.56015" fill="white"/>
<ellipse cx="1092.75" cy="936.033" rx="0.528289" ry="0.56015" fill="white"/>
<ellipse cx="1171.99" cy="936.033" rx="0.528289" ry="0.56015" fill="white"/>
<ellipse cx="1251.24" cy="936.033" rx="0.528289" ry="0.56015" fill="white"/>
<ellipse cx="1330.48" cy="936.033" rx="0.528332" ry="0.56015" fill="white"/>
<ellipse cx="1409.72" cy="936.033" rx="0.528274" ry="0.56015" fill="white"/>
<ellipse cx="1488.97" cy="936.033" rx="0.528303" ry="0.56015" fill="white"/>
<ellipse cx="1488.97" cy="936.033" rx="0.528303" ry="0.56015" fill="white"/>
<ellipse cx="1589.34" cy="880.017" rx="0.528303" ry="0.56015" fill="white"/>
<ellipse cx="767.324" cy="28.5684" rx="0.528287" ry="0.560165" fill="white"/>
<ellipse cx="846.568" cy="28.5684" rx="0.528287" ry="0.560165" fill="white"/>
<ellipse cx="925.811" cy="28.5684" rx="0.528303" ry="0.560165" fill="white"/>
<ellipse cx="1005.05" cy="28.5684" rx="0.528267" ry="0.560165" fill="white"/>
<ellipse cx="1084.3" cy="28.5684" rx="0.528289" ry="0.560165" fill="white"/>
<ellipse cx="1163.54" cy="28.5684" rx="0.528289" ry="0.560165" fill="white"/>
<ellipse cx="1242.78" cy="28.5684" rx="0.528332" ry="0.560165" fill="white"/>
<ellipse cx="1322.03" cy="28.5684" rx="0.528303" ry="0.560165" fill="white"/>
<ellipse cx="1401.27" cy="28.5684" rx="0.528274" ry="0.560165" fill="white"/>
<ellipse cx="1480.51" cy="28.5684" rx="0.528274" ry="0.560165" fill="white"/>
<ellipse cx="804.304" cy="84.5846" rx="0.528287" ry="0.560165" fill="white"/>
<ellipse cx="883.548" cy="84.5846" rx="0.528289" ry="0.560165" fill="white"/>
<ellipse cx="962.791" cy="84.5846" rx="0.528289" ry="0.560165" fill="white"/>
<ellipse cx="1042.03" cy="84.5846" rx="0.528267" ry="0.560165" fill="white"/>
<ellipse cx="1121.28" cy="84.5846" rx="0.528274" ry="0.560165" fill="white"/>
<ellipse cx="1200.52" cy="84.5846" rx="0.528303" ry="0.560165" fill="white"/>
<ellipse cx="1279.76" cy="84.5846" rx="0.528332" ry="0.560165" fill="white"/>
<ellipse cx="1359.01" cy="84.5846" rx="0.528274" ry="0.560165" fill="white"/>
<ellipse cx="1438.25" cy="84.5846" rx="0.528303" ry="0.560165" fill="white"/>
<ellipse cx="1517.49" cy="84.5846" rx="0.528274" ry="0.560165" fill="white"/>
<ellipse cx="788.456" cy="140.601" rx="0.528287" ry="0.560165" fill="white"/>
<ellipse cx="867.699" cy="140.601" rx="0.528289" ry="0.560165" fill="white"/>
<ellipse cx="946.943" cy="140.601" rx="0.528289" ry="0.560165" fill="white"/>
<ellipse cx="1026.19" cy="140.601" rx="0.528281" ry="0.560165" fill="white"/>
<ellipse cx="1105.43" cy="140.601" rx="0.528289" ry="0.560165" fill="white"/>
<ellipse cx="1184.67" cy="140.601" rx="0.528332" ry="0.560165" fill="white"/>
<ellipse cx="1263.92" cy="140.601" rx="0.528289" ry="0.560165" fill="white"/>
<ellipse cx="1343.16" cy="140.601" rx="0.528303" ry="0.560165" fill="white"/>
<ellipse cx="1422.4" cy="140.601" rx="0.528274" ry="0.560165" fill="white"/>
<ellipse cx="1501.65" cy="140.601" rx="0.528274" ry="0.560165" fill="white"/>
<ellipse cx="804.304" cy="196.617" rx="0.528287" ry="0.560165" fill="white"/>
<ellipse cx="883.548" cy="196.617" rx="0.528289" ry="0.560165" fill="white"/>
<ellipse cx="962.791" cy="196.617" rx="0.528289" ry="0.560165" fill="white"/>
<ellipse cx="1042.03" cy="196.617" rx="0.528267" ry="0.560165" fill="white"/>
<ellipse cx="1121.28" cy="196.617" rx="0.528274" ry="0.560165" fill="white"/>
<ellipse cx="1200.52" cy="196.617" rx="0.528303" ry="0.560165" fill="white"/>
<ellipse cx="1279.76" cy="196.617" rx="0.528332" ry="0.560165" fill="white"/>
<ellipse cx="1359.01" cy="196.617" rx="0.528274" ry="0.560165" fill="white"/>
<ellipse cx="1438.25" cy="196.617" rx="0.528303" ry="0.560165" fill="white"/>
<ellipse cx="1517.49" cy="196.617" rx="0.528274" ry="0.560165" fill="white"/>
<ellipse cx="777.89" cy="253.754" rx="0.528287" ry="0.560165" fill="white"/>
<ellipse cx="857.133" cy="253.754" rx="0.528279" ry="0.560165" fill="white"/>
<ellipse cx="936.377" cy="253.754" rx="0.528289" ry="0.560165" fill="white"/>
<ellipse cx="1015.62" cy="253.754" rx="0.528289" ry="0.560165" fill="white"/>
<ellipse cx="1094.86" cy="253.754" rx="0.528289" ry="0.560165" fill="white"/>
<ellipse cx="1174.11" cy="253.754" rx="0.528289" ry="0.560165" fill="white"/>
<ellipse cx="1253.35" cy="253.754" rx="0.52823" ry="0.560165" fill="white"/>
<ellipse cx="1332.59" cy="253.754" rx="0.528274" ry="0.560165" fill="white"/>
<ellipse cx="1411.84" cy="253.754" rx="0.528274" ry="0.560165" fill="white"/>
<ellipse cx="1491.08" cy="253.754" rx="0.528303" ry="0.560165" fill="white"/>
<ellipse cx="809.587" cy="309.77" rx="0.528287" ry="0.560165" fill="white"/>
<ellipse cx="888.831" cy="309.77" rx="0.528289" ry="0.560165" fill="white"/>
<ellipse cx="968.074" cy="309.77" rx="0.528289" ry="0.560165" fill="white"/>
<ellipse cx="1047.32" cy="309.77" rx="0.528289" ry="0.560165" fill="white"/>
<ellipse cx="1126.56" cy="309.77" rx="0.528289" ry="0.560165" fill="white"/>
<ellipse cx="1205.8" cy="309.77" rx="0.52823" ry="0.560165" fill="white"/>
<ellipse cx="1285.05" cy="309.77" rx="0.528289" ry="0.560165" fill="white"/>
<ellipse cx="1364.29" cy="309.77" rx="0.528274" ry="0.560165" fill="white"/>
<ellipse cx="1443.53" cy="309.77" rx="0.528303" ry="0.560165" fill="white"/>
<ellipse cx="799.022" cy="365.786" rx="0.528287" ry="0.56015" fill="white"/>
<ellipse cx="878.265" cy="365.786" rx="0.528289" ry="0.56015" fill="white"/>
<ellipse cx="957.508" cy="365.786" rx="0.528289" ry="0.56015" fill="white"/>
<ellipse cx="1036.75" cy="365.786" rx="0.528267" ry="0.56015" fill="white"/>
<ellipse cx="1116" cy="365.786" rx="0.528289" ry="0.56015" fill="white"/>
<ellipse cx="1195.24" cy="365.786" rx="0.528332" ry="0.56015" fill="white"/>
<ellipse cx="1274.48" cy="365.786" rx="0.528289" ry="0.56015" fill="white"/>
<ellipse cx="1353.73" cy="365.786" rx="0.528274" ry="0.56015" fill="white"/>
<ellipse cx="1432.97" cy="365.786" rx="0.528274" ry="0.56015" fill="white"/>
<ellipse cx="1512.21" cy="365.786" rx="0.528303" ry="0.56015" fill="white"/>
<ellipse cx="830.719" cy="421.803" rx="0.528288" ry="0.560181" fill="white"/>
<ellipse cx="909.962" cy="421.803" rx="0.528289" ry="0.560181" fill="white"/>
<ellipse cx="989.206" cy="421.803" rx="0.528289" ry="0.560181" fill="white"/>
<ellipse cx="1068.45" cy="421.803" rx="0.528289" ry="0.560181" fill="white"/>
<ellipse cx="1147.69" cy="421.803" rx="0.528289" ry="0.560181" fill="white"/>
<ellipse cx="1226.94" cy="421.803" rx="0.528289" ry="0.560181" fill="white"/>
<ellipse cx="1306.18" cy="421.803" rx="0.528216" ry="0.560181" fill="white"/>
<ellipse cx="1385.42" cy="421.803" rx="0.528274" ry="0.560181" fill="white"/>
<ellipse cx="1464.67" cy="421.803" rx="0.528303" ry="0.560181" fill="white"/>
<ellipse cx="1543.91" cy="421.803" rx="0.528274" ry="0.560181" fill="white"/>
<ellipse cx="788.456" cy="477.819" rx="0.528287" ry="0.56015" fill="white"/>
<ellipse cx="867.699" cy="477.819" rx="0.528289" ry="0.56015" fill="white"/>
<ellipse cx="946.943" cy="477.819" rx="0.528289" ry="0.56015" fill="white"/>
<ellipse cx="1026.19" cy="477.819" rx="0.528281" ry="0.56015" fill="white"/>
<ellipse cx="1105.43" cy="477.819" rx="0.528289" ry="0.56015" fill="white"/>
<ellipse cx="1184.67" cy="477.819" rx="0.528332" ry="0.56015" fill="white"/>
<ellipse cx="1263.92" cy="477.819" rx="0.528289" ry="0.56015" fill="white"/>
<ellipse cx="1343.16" cy="477.819" rx="0.528303" ry="0.56015" fill="white"/>
<ellipse cx="1422.4" cy="477.819" rx="0.528274" ry="0.56015" fill="white"/>
<ellipse cx="1501.65" cy="477.819" rx="0.528274" ry="0.56015" fill="white"/>
<ellipse cx="804.304" cy="533.836" rx="0.528287" ry="0.560181" fill="white"/>
<ellipse cx="883.548" cy="533.836" rx="0.528289" ry="0.560181" fill="white"/>
<ellipse cx="962.791" cy="533.836" rx="0.528289" ry="0.560181" fill="white"/>
<ellipse cx="1042.03" cy="533.836" rx="0.528267" ry="0.560181" fill="white"/>
<ellipse cx="1121.28" cy="533.836" rx="0.528274" ry="0.560181" fill="white"/>
<ellipse cx="1200.52" cy="533.836" rx="0.528303" ry="0.560181" fill="white"/>
<ellipse cx="1279.76" cy="533.836" rx="0.528332" ry="0.560181" fill="white"/>
<ellipse cx="1359.01" cy="533.836" rx="0.528274" ry="0.560181" fill="white"/>
<ellipse cx="1438.25" cy="533.836" rx="0.528303" ry="0.560181" fill="white"/>
<ellipse cx="1517.49" cy="533.836" rx="0.528274" ry="0.560181" fill="white"/>
<ellipse cx="841.285" cy="595.453" rx="0.528287" ry="0.56015" fill="white"/>
<ellipse cx="920.528" cy="595.453" rx="0.528274" ry="0.56015" fill="white"/>
<ellipse cx="999.771" cy="595.453" rx="0.528296" ry="0.56015" fill="white"/>
<ellipse cx="1079.01" cy="595.453" rx="0.528289" ry="0.56015" fill="white"/>
<ellipse cx="1158.26" cy="595.453" rx="0.528274" ry="0.56015" fill="white"/>
<ellipse cx="1237.5" cy="595.453" rx="0.528289" ry="0.56015" fill="white"/>
<ellipse cx="1316.75" cy="595.453" rx="0.528332" ry="0.56015" fill="white"/>
<ellipse cx="1395.99" cy="595.453" rx="0.528303" ry="0.56015" fill="white"/>
<ellipse cx="1475.23" cy="595.453" rx="0.528274" ry="0.56015" fill="white"/>
<ellipse cx="1554.48" cy="595.453" rx="0.528274" ry="0.56015" fill="white"/>
<ellipse cx="809.587" cy="657.071" rx="0.528287" ry="0.560181" fill="white"/>
<ellipse cx="888.831" cy="657.071" rx="0.528289" ry="0.560181" fill="white"/>
<ellipse cx="968.074" cy="657.071" rx="0.528289" ry="0.560181" fill="white"/>
<ellipse cx="1047.32" cy="657.071" rx="0.528289" ry="0.560181" fill="white"/>
<ellipse cx="1126.56" cy="657.071" rx="0.528289" ry="0.560181" fill="white"/>
<ellipse cx="1205.8" cy="657.071" rx="0.52823" ry="0.560181" fill="white"/>
<ellipse cx="1285.05" cy="657.071" rx="0.528289" ry="0.560181" fill="white"/>
<ellipse cx="1364.29" cy="657.071" rx="0.528274" ry="0.560181" fill="white"/>
<ellipse cx="1443.53" cy="657.071" rx="0.528303" ry="0.560181" fill="white"/>
<ellipse cx="1522.78" cy="657.071" rx="0.528274" ry="0.560181" fill="white"/>
<ellipse cx="851.851" cy="717.569" rx="0.528292" ry="0.560119" fill="white"/>
<ellipse cx="931.094" cy="717.569" rx="0.528274" ry="0.560119" fill="white"/>
<ellipse cx="1010.34" cy="717.569" rx="0.528318" ry="0.560119" fill="white"/>
<ellipse cx="1089.58" cy="717.569" rx="0.528289" ry="0.560119" fill="white"/>
<ellipse cx="1168.82" cy="717.569" rx="0.528274" ry="0.560119" fill="white"/>
<ellipse cx="1248.07" cy="717.569" rx="0.528303" ry="0.560119" fill="white"/>
<ellipse cx="1327.31" cy="717.569" rx="0.528332" ry="0.560119" fill="white"/>
<ellipse cx="1406.55" cy="717.569" rx="0.528274" ry="0.560119" fill="white"/>
<ellipse cx="1485.8" cy="717.569" rx="0.528303" ry="0.560119" fill="white"/>
<ellipse cx="820.153" cy="779.187" rx="0.528287" ry="0.560181" fill="white"/>
<ellipse cx="899.397" cy="779.187" rx="0.528274" ry="0.560181" fill="white"/>
<ellipse cx="978.64" cy="779.187" rx="0.528289" ry="0.560181" fill="white"/>
<ellipse cx="1057.88" cy="779.187" rx="0.528318" ry="0.560181" fill="white"/>
<ellipse cx="1137.13" cy="779.187" rx="0.528289" ry="0.560181" fill="white"/>
<ellipse cx="1216.37" cy="779.187" rx="0.528289" ry="0.560181" fill="white"/>
<ellipse cx="1295.61" cy="779.187" rx="0.528303" ry="0.560181" fill="white"/>
<ellipse cx="1374.86" cy="779.187" rx="0.528274" ry="0.560181" fill="white"/>
<ellipse cx="1454.1" cy="779.187" rx="0.528274" ry="0.560181" fill="white"/>
<ellipse cx="1533.34" cy="779.187" rx="0.528303" ry="0.560181" fill="white"/>
<ellipse cx="788.456" cy="840.805" rx="0.528287" ry="0.56015" fill="white"/>
<ellipse cx="867.699" cy="840.805" rx="0.528289" ry="0.56015" fill="white"/>
<ellipse cx="946.943" cy="840.805" rx="0.528289" ry="0.56015" fill="white"/>
<ellipse cx="1026.19" cy="840.805" rx="0.528281" ry="0.56015" fill="white"/>
<ellipse cx="1105.43" cy="840.805" rx="0.528289" ry="0.56015" fill="white"/>
<ellipse cx="1184.67" cy="840.805" rx="0.528332" ry="0.56015" fill="white"/>
<ellipse cx="1263.92" cy="840.805" rx="0.528289" ry="0.56015" fill="white"/>
<ellipse cx="1343.16" cy="840.805" rx="0.528303" ry="0.56015" fill="white"/>
<ellipse cx="1422.4" cy="840.805" rx="0.528274" ry="0.56015" fill="white"/>
<ellipse cx="1501.65" cy="840.805" rx="0.528274" ry="0.56015" fill="white"/>
<ellipse cx="820.153" cy="902.423" rx="0.528287" ry="0.560088" fill="white"/>
<ellipse cx="899.397" cy="902.423" rx="0.528274" ry="0.560088" fill="white"/>
<ellipse cx="978.64" cy="902.423" rx="0.528289" ry="0.560088" fill="white"/>
<ellipse cx="1057.88" cy="902.423" rx="0.528318" ry="0.560088" fill="white"/>
<ellipse cx="1137.13" cy="902.423" rx="0.528289" ry="0.560088" fill="white"/>
<ellipse cx="1216.37" cy="902.423" rx="0.528289" ry="0.560088" fill="white"/>
<ellipse cx="1295.61" cy="902.423" rx="0.528303" ry="0.560088" fill="white"/>
<ellipse cx="1374.86" cy="902.423" rx="0.528274" ry="0.560088" fill="white"/>
<ellipse cx="1454.1" cy="902.423" rx="0.528274" ry="0.560088" fill="white"/>
<ellipse cx="799.022" cy="958.44" rx="0.528287" ry="0.56015" fill="white"/>
<ellipse cx="878.265" cy="958.44" rx="0.528289" ry="0.56015" fill="white"/>
<ellipse cx="957.508" cy="958.44" rx="0.528289" ry="0.56015" fill="white"/>
<ellipse cx="1036.75" cy="958.44" rx="0.528267" ry="0.56015" fill="white"/>
<ellipse cx="1116" cy="958.44" rx="0.528289" ry="0.56015" fill="white"/>
<ellipse cx="1195.24" cy="958.44" rx="0.528332" ry="0.56015" fill="white"/>
<ellipse cx="1274.48" cy="958.44" rx="0.528289" ry="0.56015" fill="white"/>
<ellipse cx="1353.73" cy="958.44" rx="0.528274" ry="0.56015" fill="white"/>
<ellipse cx="1432.97" cy="958.44" rx="0.528274" ry="0.56015" fill="white"/>
<ellipse cx="1432.97" cy="958.44" rx="0.528274" ry="0.56015" fill="white"/>
<ellipse cx="1533.34" cy="902.423" rx="0.528303" ry="0.560088" fill="white"/>
<ellipse cx="806.418" cy="79.5433" rx="1.05658" ry="1.12033" fill="white"/>
<ellipse cx="964.904" cy="85.1448" rx="1.05658" ry="1.12032" fill="white"/>
<ellipse cx="1123.39" cy="79.5433" rx="1.05658" ry="1.12033" fill="white"/>
<ellipse cx="1281.88" cy="73.9416" rx="1.05654" ry="1.12032" fill="white"/>
<ellipse cx="1440.36" cy="79.5433" rx="1.05658" ry="1.12033" fill="white"/>
<ellipse cx="1598.85" cy="85.1448" rx="1.05647" ry="1.12032" fill="white"/>
<ellipse cx="869.812" cy="191.576" rx="1.05657" ry="1.12033" fill="white"/>
<ellipse cx="1028.3" cy="197.178" rx="1.05655" ry="1.12033" fill="white"/>
<ellipse cx="1186.79" cy="191.576" rx="1.05654" ry="1.12033" fill="white"/>
<ellipse cx="1345.27" cy="185.974" rx="1.05658" ry="1.12033" fill="white"/>
<ellipse cx="1503.76" cy="191.576" rx="1.05655" ry="1.12033" fill="white"/>
<ellipse cx="843.398" cy="304.729" rx="1.05658" ry="1.12033" fill="white"/>
<ellipse cx="1001.88" cy="310.33" rx="1.05658" ry="1.12033" fill="white"/>
<ellipse cx="1160.37" cy="304.729" rx="1.05658" ry="1.12033" fill="white"/>
<ellipse cx="1318.86" cy="299.127" rx="1.05661" ry="1.12031" fill="white"/>
<ellipse cx="1477.34" cy="304.729" rx="1.05655" ry="1.12033" fill="white"/>
<ellipse cx="816.983" cy="416.762" rx="1.05658" ry="1.12033" fill="white"/>
<ellipse cx="975.47" cy="422.363" rx="1.05657" ry="1.12033" fill="white"/>
<ellipse cx="1133.96" cy="416.762" rx="1.05657" ry="1.12033" fill="white"/>
<ellipse cx="1292.44" cy="411.16" rx="1.05664" ry="1.12033" fill="white"/>
<ellipse cx="1450.93" cy="416.762" rx="1.05658" ry="1.12033" fill="white"/>
<ellipse cx="901.51" cy="528.794" rx="1.05659" ry="1.12033" fill="white"/>
<ellipse cx="1060" cy="534.396" rx="1.05658" ry="1.12036" fill="white"/>
<ellipse cx="1218.48" cy="528.794" rx="1.05657" ry="1.12033" fill="white"/>
<ellipse cx="1376.97" cy="523.192" rx="1.05658" ry="1.12033" fill="white"/>
<ellipse cx="1535.46" cy="528.794" rx="1.05658" ry="1.12033" fill="white"/>
<ellipse cx="802.72" cy="640.827" rx="1.05658" ry="1.12033" fill="white"/>
<ellipse cx="961.206" cy="646.428" rx="1.05657" ry="1.12033" fill="white"/>
<ellipse cx="1119.69" cy="640.827" rx="1.05658" ry="1.12033" fill="white"/>
<ellipse cx="1278.18" cy="635.225" rx="1.05658" ry="1.12033" fill="white"/>
<ellipse cx="1436.67" cy="640.827" rx="1.05658" ry="1.12033" fill="white"/>
<ellipse cx="1595.15" cy="645.308" rx="1.05649" ry="1.12036" fill="white"/>
<ellipse cx="814.87" cy="737.175" rx="1.05658" ry="1.12033" fill="white"/>
<ellipse cx="973.357" cy="742.777" rx="1.05658" ry="1.12033" fill="white"/>
<ellipse cx="1131.84" cy="737.175" rx="1.05658" ry="1.12033" fill="white"/>
<ellipse cx="1290.33" cy="731.573" rx="1.05655" ry="1.12033" fill="white"/>
<ellipse cx="1448.82" cy="737.175" rx="1.05658" ry="1.12033" fill="white"/>
<ellipse cx="853.435" cy="857.05" rx="1.05658" ry="1.12033" fill="white"/>
<ellipse cx="1011.92" cy="862.652" rx="1.05655" ry="1.1203" fill="white"/>
<ellipse cx="1170.41" cy="857.05" rx="1.05658" ry="1.12033" fill="white"/>
<ellipse cx="1328.9" cy="851.449" rx="1.05652" ry="1.12033" fill="white"/>
<ellipse cx="1487.38" cy="857.05" rx="1.05655" ry="1.12033" fill="white"/>
<ellipse cx="1528.06" cy="956.759" rx="1.05658" ry="1.12036" fill="white"/>
<ellipse cx="922.641" cy="34.7301" rx="1.05657" ry="1.12032" fill="white"/>
<ellipse cx="1081.13" cy="29.1286" rx="1.05657" ry="1.12032" fill="white"/>
<ellipse cx="1239.61" cy="23.5269" rx="1.05657" ry="1.12033" fill="white"/>
<ellipse cx="1398.1" cy="29.1286" rx="1.05658" ry="1.12032" fill="white"/>
<ellipse cx="1556.59" cy="34.7301" rx="1.05661" ry="1.12032" fill="white"/>
<ellipse cx="890.944" cy="146.763" rx="1.05658" ry="1.12035" fill="white"/>
<ellipse cx="1049.43" cy="141.161" rx="1.05658" ry="1.12033" fill="white"/>
<ellipse cx="1207.92" cy="135.56" rx="1.05663" ry="1.12033" fill="white"/>
<ellipse cx="1366.4" cy="141.161" rx="1.05661" ry="1.12033" fill="white"/>
<ellipse cx="1524.89" cy="146.763" rx="1.05655" ry="1.12035" fill="white"/>
<ellipse cx="795.852" cy="254.314" rx="1.05658" ry="1.12033" fill="white"/>
<ellipse cx="954.339" cy="259.916" rx="1.05657" ry="1.12031" fill="white"/>
<ellipse cx="1112.83" cy="254.314" rx="1.05658" ry="1.12033" fill="white"/>
<ellipse cx="1271.31" cy="248.712" rx="1.0566" ry="1.12033" fill="white"/>
<ellipse cx="1429.8" cy="254.314" rx="1.05655" ry="1.12033" fill="white"/>
<ellipse cx="1588.29" cy="258.796" rx="1.05658" ry="1.12033" fill="white"/>
<ellipse cx="927.924" cy="371.948" rx="1.05657" ry="1.12033" fill="white"/>
<ellipse cx="1086.41" cy="366.347" rx="1.05657" ry="1.1203" fill="white"/>
<ellipse cx="1244.9" cy="360.745" rx="1.05663" ry="1.12033" fill="white"/>
<ellipse cx="1403.38" cy="366.347" rx="1.05658" ry="1.1203" fill="white"/>
<ellipse cx="1561.87" cy="371.948" rx="1.05658" ry="1.12033" fill="white"/>
<ellipse cx="901.51" cy="483.981" rx="1.05659" ry="1.12033" fill="white"/>
<ellipse cx="1060" cy="478.379" rx="1.05658" ry="1.12033" fill="white"/>
<ellipse cx="1218.48" cy="472.778" rx="1.05657" ry="1.12033" fill="white"/>
<ellipse cx="1376.97" cy="478.379" rx="1.05658" ry="1.12033" fill="white"/>
<ellipse cx="1535.46" cy="483.981" rx="1.05658" ry="1.12033" fill="white"/>
<ellipse cx="827.549" cy="590.412" rx="1.05658" ry="1.1203" fill="white"/>
<ellipse cx="986.036" cy="596.014" rx="1.05658" ry="1.12033" fill="white"/>
<ellipse cx="1144.52" cy="590.412" rx="1.05658" ry="1.1203" fill="white"/>
<ellipse cx="1303.01" cy="584.81" rx="1.05664" ry="1.12033" fill="white"/>
<ellipse cx="1461.5" cy="590.412" rx="1.05661" ry="1.1203" fill="white"/>
<ellipse cx="887.246" cy="706.926" rx="1.05658" ry="1.12033" fill="white"/>
<ellipse cx="1045.73" cy="701.325" rx="1.0566" ry="1.12033" fill="white"/>
<ellipse cx="1204.22" cy="695.723" rx="1.05663" ry="1.12033" fill="white"/>
<ellipse cx="1362.71" cy="701.325" rx="1.05658" ry="1.12033" fill="white"/>
<ellipse cx="1521.19" cy="706.926" rx="1.05658" ry="1.12033" fill="white"/>
<ellipse cx="899.397" cy="804.395" rx="1.05657" ry="1.12033" fill="white"/>
<ellipse cx="1057.88" cy="798.793" rx="1.05657" ry="1.1203" fill="white"/>
<ellipse cx="1216.37" cy="793.191" rx="1.05663" ry="1.12036" fill="white"/>
<ellipse cx="1374.86" cy="798.793" rx="1.05658" ry="1.1203" fill="white"/>
<ellipse cx="1533.34" cy="804.395" rx="1.05658" ry="1.12033" fill="white"/>
<ellipse cx="779.475" cy="918.668" rx="1.05658" ry="1.1203" fill="white"/>
<ellipse cx="937.962" cy="924.27" rx="1.05657" ry="1.1203" fill="white"/>
<ellipse cx="1096.45" cy="918.668" rx="1.05658" ry="1.1203" fill="white"/>
<ellipse cx="1254.94" cy="913.067" rx="1.05654" ry="1.1203" fill="white"/>
<ellipse cx="1413.42" cy="918.668" rx="1.05658" ry="1.1203" fill="white"/>
<ellipse cx="1571.91" cy="924.27" rx="1.05649" ry="1.1203" fill="white"/>
</svg>
